<?xml version="1.0" encoding="UTF-8" standalone="no"?>
<!-- Generator: Adobe Illustrator 21.1.0, SVG Export Plug-In . SVG Version: 6.00 Build 0)  -->

<svg
   xmlns:dc="http://purl.org/dc/elements/1.1/"
   xmlns:cc="http://creativecommons.org/ns#"
   xmlns:rdf="http://www.w3.org/1999/02/22-rdf-syntax-ns#"
   xmlns:svg="http://www.w3.org/2000/svg"
   xmlns="http://www.w3.org/2000/svg"
   xmlns:sodipodi="http://sodipodi.sourceforge.net/DTD/sodipodi-0.dtd"
   xmlns:inkscape="http://www.inkscape.org/namespaces/inkscape"
   version="1.1"
   x="0px"
   y="0px"
   viewBox="0 0 256.5 288"
   xml:space="preserve"
   id="svg30"
   sodipodi:docname="sil.svg"
   width="256.5"
   height="288"
   inkscape:version="0.92.2 5c3e80d, 2017-08-06"><metadata
     id="metadata36"><rdf:RDF><cc:Work
         rdf:about=""><dc:format>image/svg+xml</dc:format><dc:type
           rdf:resource="http://purl.org/dc/dcmitype/StillImage" /></cc:Work></rdf:RDF></metadata><defs
     id="defs34" /><sodipodi:namedview
     pagecolor="#ffffff"
     bordercolor="#666666"
     borderopacity="1"
     objecttolerance="10"
     gridtolerance="10"
     guidetolerance="10"
     inkscape:pageopacity="0"
     inkscape:pageshadow="2"
     inkscape:window-width="1363"
     inkscape:window-height="850"
     id="namedview32"
     showgrid="false"
     inkscape:zoom="1.1919192"
     inkscape:cx="162.10001"
     inkscape:cy="170.23729"
     inkscape:window-x="1694"
     inkscape:window-y="47"
     inkscape:window-maximized="0"
     inkscape:current-layer="svg30" /><style
     type="text/css"
     id="style2">
	.st0{fill:#005D95;}
	.st1{fill:#FFFFFF;}
</style><g
     id="Layer_6_copy_3"
     transform="translate(-143.89999,-144)" /><g
     id="Layer_6_copy_2"
     transform="translate(-143.89999,-144)"><g
       id="g18"><g
         id="XMLID_1_"><g
           id="g13"><path
             class="st0"
             d="M 400.3,360.4 V 432 H 143.9 v -71.5 l 0.7,-0.4 h 69.3 c 21.7,0 36.3,-13.4 36.3,-33.1 0,-12.9 -6.7,-23.5 -20,-31.5 -12,-7.2 -15.8,-9.9 -15.8,-17.7 0,-5 3.8,-10.4 14.3,-10.4 5.8,0 10.2,1.8 13.3,3.5 l 3.9,-20.7 c -4.1,-1.8 -15.4,-4.5 -22.3,-4.5 -17.3,0 -34.7,10.2 -34.7,33.1 0,6.7 2.7,19.6 20.9,30.7 9.7,6.3 14.7,10 14.5,19.2 -0.1,4.5 -3,9.9 -16.3,9.9 h -64 v 0 V 144 h 256.4 v 194.4 l -13.6,14.3 z m -110,0 V 248.6 h -22.1 v 111.8 z"
             id="path5"
             inkscape:connector-curvature="0"
             style="fill:#005d95" /><rect
             x="268.20001"
             y="248.60001"
             class="st1"
             width="22.1"
             height="111.8"
             id="rect7"
             style="fill:#ffffff" /><path
             class="st1"
             d="m 245.9,249.9 -3.9,20.7 c -3.1,-1.7 -7.5,-3.5 -13.3,-3.5 -10.6,0 -14.3,5.4 -14.3,10.4 0,7.8 3.8,10.5 15.8,17.7 13.3,8.1 20,18.7 20,31.5 0,19.8 -14.6,33.1 -36.3,33.1 h -69.3 l 16.2,-9 -16.8,-12.4 h 64 c 13.3,0 16.2,-5.4 16.3,-9.9 0.2,-9.2 -4.8,-12.9 -14.5,-19.2 -18.2,-11.1 -20.9,-24 -20.9,-30.7 0,-22.9 17.4,-33.1 34.7,-33.1 6.9,0 18.3,2.6 22.3,4.4 z"
             id="path9"
             inkscape:connector-curvature="0"
             style="fill:#ffffff" /><polygon
             class="st1"
             points="143.9,360 143.9,338.4 144,338.4 160.9,351.1 144.6,360 "
             id="polygon11"
             style="fill:#ffffff" /></g><g
           id="g15" /></g></g><polygon
       class="st1"
       points="336.7,248.5 313.2,248.5 313.2,360.4 400.3,360.4 400.3,338.4 336.7,338.3 "
       id="polygon20"
       style="fill:#ffffff" /><rect
       x="143.89999"
       y="360.10001"
       class="st0"
       width="0.69999999"
       height="0.40000001"
       id="rect22"
       style="fill:#005d95" /></g><g
     id="Layer_3"
     transform="translate(-143.89999,-144)"><g
       id="g27"><path
         class="st1"
         d="m 383.5,407.7 c 4.3,0 7.7,3.4 7.7,7.6 0,4.4 -3.4,7.7 -7.8,7.7 -4.4,0 -7.8,-3.4 -7.8,-7.7 0.1,-4.3 3.5,-7.6 7.9,-7.6 z m 0,1.3 c -3.5,0 -6.1,2.8 -6.1,6.3 0,3.6 2.6,6.3 6.2,6.3 3.5,0 6,-2.8 6,-6.3 -0.1,-3.4 -2.6,-6.3 -6.1,-6.3 z m -1.4,10.5 h -1.5 v -8 c 0.8,-0.1 1.7,-0.2 2.8,-0.2 1.3,0 2,0.2 2.5,0.6 0.5,0.3 0.8,1 0.8,1.7 0,1 -0.7,1.6 -1.6,1.9 v 0.1 c 0.7,0.3 1.1,0.9 1.3,1.9 0.2,1.2 0.4,1.7 0.6,2 h -1.5 c -0.2,-0.3 -0.4,-1 -0.6,-2.1 -0.2,-0.9 -0.7,-1.2 -1.9,-1.2 h -1 v 3.3 z m 0,-4.5 h 1 c 1.1,0 2.1,-0.3 2.1,-1.3 0,-0.8 -0.5,-1.3 -1.9,-1.3 -0.6,0 -0.9,0 -1.2,0.1 z"
         id="path25"
         inkscape:connector-curvature="0"
         style="fill:#ffffff" /></g></g></svg>