<?xml version="1.0" encoding="UTF-8"?>
<!DOCTYPE svg  PUBLIC '-//W3C//DTD SVG 1.1//EN'  'http://www.w3.org/Graphics/SVG/1.1/DTD/svg11.dtd'>
<svg enable-background="new 0 0 1920 1920" version="1.1" viewBox="0 0 1920 1920" xml:space="preserve" xmlns="http://www.w3.org/2000/svg">
	<path d="m920.5 75.72c8.81-0.8 17.71 0.46 26.49-0.89 8.66-0.29 17.39-0.49 26.02 0.57 30.73-0.03 61.43 2.45 91.94 6.05 94.06 11.36 186.25 38.05 271.8 78.8 15.2 7.74 30.65 15.01 45.56 23.33 66.86 36.8 129 82.2 184.21 134.89 7.5499 7.84 16.28 14.48 23.17 22.96 54.33 55.38 101.07 118.2 139.04 185.85 64.12 114.21 102.09 242.99 110.2 373.72 2.0599 25.61 1.6599 51.32 1.7 77-1.91 83.99-15.47 167.82-40.98 247.92-39.95 126.36-109.05 243.34-200.21 339.5-86 91.16-191.68 163.8-307.77 211.14-78.44 32.18-161.62 52.66-245.97 61.07-14.86 1.27-29.72 2.79-44.64 3.08-7.62 1.17-15.33 0.3301-22.97 1.02-7.34 0.53-14.7 0.2001-22.04 0.23-6.94-0.1599-13.89 0.52-20.8-0.2999-77.18-1.8201-154.2-13.79-228.3-35.61-133.29-39.19-256.94-110.64-357.56-206.42-8.2-7.16-15.51-15.25-23.32-22.82-52.68-53.88-98.57-114.46-136.04-179.87-40.93-71.49-71.77-148.76-91.22-228.81-12.89-53.15-20.84-107.5-23.69-162.1-1.43-19.97-0.81-40.01-0.94-60.01-0.32-18.06 0.97-36.06 2.13-54.06 5.7-77.34 21.66-153.94 47.41-227.09 25.87-73.42 61.5-143.41 105.75-207.46 29.38-42.81 62.81-82.78 99.07-119.9 55.94-56.28 119.16-105.41 187.96-145 68.94-39.76 143.33-70.11 220.43-89.85 60-15.49 121.68-24.37 183.57-26.94m-36.97 196.85c0 0.22 0.0099 0.65 0.02 0.86-6.5 0-12.53 2.82-18.97 3.2-0.02 0.19-0.06 0.58-0.08 0.77-12.41 2.23-24.05 7.35-35.95 11.3-0.02 0.15-0.06 0.44-0.07 0.59-11.83 4.09-22.73 10.41-33.67 16.41-16.05 9.5-31.12 20.67-44.88 33.26-8.68 9.03-18.21 17.31-25.86 27.28-21.93 26.44-38.45 57.23-48.86 89.95-1.11 3.58-2.03 7.22-3.05 10.83-1.66 5.94-3.27 11.95-3.93 18.09l-0.48 0.82c-0.17 1.35-0.31 2.7-0.49 4.05-2.1 8.51-1.57 17.36-3.4 25.92-0.64 18.33-1.11 36.83 1.66 55.03 0.45 5.06 0.89 10.17 2.41 15.05 0.39 5.1 2.31 9.9 2.87 14.97 1.45 3.23 2.13 6.72 2.97 10.14 1.53 5.47 3.88 10.7 4.95 16.3 0.17 0.02 0.52 0.06 0.69 0.08 0.52 1.83 1.09 3.66 1.72 5.47 13.84 34.57 34.25 66.83 61.26 92.63 4.93 4.77 9.52 9.96 15.03 14.1-4.18 0.16-7.75-2.18-11.46-3.73-13.08-6.17-26.64-11.23-39.97-16.84-1.02-0.33-2.03-0.64-3.05-0.94-4.85-1.8799-9.61-4.28-14.84-4.9 0.66-0.18 1.33-0.36 2-0.52-1.69-0.32-3.38-0.63-4.98-1.22-12.55-4.65-25.4-8.44-38.2-12.34-2.35-0.68-4.73-1.27-7.09-1.89-2.85-0.99-5.82-1.56-8.77-2.11-2.93-1.11-6.02-1.64-9.04-2.36-10.27-2.47-20.68-4.25-31.07-6.02-13.65-1.27-27.29-3.72-41.05-2.86-11.04-0.43-22.05 1.02-32.91 2.86-5.38 1.2-10.72 2.5-16.02 4-7.93 3.02-15.89 6.18-23.06 10.8-8.15 4.65-14.47 11.67-20.98 18.28-15.56 17.81-22.74 41.16-26.22 64.12-0.53 4.64-1.02 9.29-1.53 13.95-1.72 8.22-1.12 16.75-2.63 25.01-0.56 17.02-0.34 34.07-0.2 51.1-0.19 6.01 1.23 11.89 1.73 17.86 0.47 6.84 2.51 13.42 3.74 20.14l0.32 0.9c4.67 18.2 12.31 36.53 26.28 49.59 8.31 8.85 19.32 15.25 31.11 18.12 0.01 0.16 0.02 0.48 0.02 0.65 5.2 0.52 10.17 2.59 15.45 2.4 9.09 0.05 18.21 0.35 27.28-0.31l-0.85 0.16c3.99 11.61 7.14 23.73 13.87 34.15 5.66 9.61 12.93 18.47 22.27 24.7 10.91 7.86 24.06 12.29 37.4 13.56 19.63 1.96 39.47-1.61 58.03-7.9399 4.3-1.37 8.35-3.98 13-3.9 7.63-0.05 15.13 1.49 22.68 2.33 13.88 1.89 27.65 4.4401 41.28 7.6801 1.37 9.03-0.01 18.3-2.73 26.96-5.72 16.99-15.65 32.27-27 46.03-10.69 13.57-23.78 24.95-35.71 37.38-7.31 7.34-15.12 14.16-22.52 21.4-3.84 4.22-8.69 7.34-12.51 11.58-7.04 6.61-14.24 13.06-21.47 19.48-6.5 6.5601-13.69 12.36-20.52 18.56-7.02 6.99-14.66 13.29-21.95 19.98-5.67 5.34-10.95 11.1-17.02 16.01-7.78 7.5499-15.32 15.35-23.05 22.95-4.15 3.88-7.4 8.59-11.52 12.5-19.49 21.86-37.5 46.28-45.23 74.96-0.72 2.9601-1.17 5.9701-1.57 9-3.55 18.01-0.88 36.81 4.98 54.05 10.66 29.51 29.89 55 50.8 78.03 7.46 8.83 16.12 16.52 24.12 24.86 20.33 18.64 42.17 36.47 67.82 47.27 3.41 1.24 6.81 2.5 10.23 3.73 0.23 0.0599 0.69 0.1801 0.92 0.24 11.17 10.07 21.17 21.41 32.69 31.13 12.2 10.77 25.32 20.55 39.43 28.68 16.52 8.9099 34.68 16.52 53.8 15.88 19.59 0.36 38.74-8.64 51.94-22.94 6.85-6.29 12.15-13.96 17.4-21.57 9.64-15.88 17.03-33.08 22.19-50.92 2.15-5.8 2.71-12.07 5.15-17.75 4.87-9.01 10.12-17.82 15.44-26.57 20.73-33.43 43.31-65.98 70.55-94.49 4.42-4.25 8.73-8.61 13.06-12.95 12.95-12.19 27.5-22.84 43.85-30 0.4 1.16 0.8 2.36 1.21 3.5601 7.59 23.69 15.38 47.39 25.98 69.94 16.08 34.77 37.32 68.4 67.87 92.21 17.27 13.47 37.64 22.94 59.22 26.85 1.5099 4.09 4.6699 7.2 7.1899 10.69 14.95 19.73 33.56 37.03 55.59 48.59 18.86 9.7101 40.11 15.32 61.41 14.35 14.39 0.6599 28.61-2.4801 42.34-6.52 22.28-7.13 43.33-18.56 60.79-34.21 15.31-14.08 27.08-31.51 37.41-49.44 17.82-32.35 30.77-68.37 31.32-105.64 0.02-19.97-4.2-40.57-15.46-57.35-8.91-14.34-22.78-24.72-37.47-32.57-8.4601-3.9399-17.22-7.2999-26.24-9.74-9.7599-2.75-18.94-7.13-27.65-12.26-3.23-7.99-7.11-15.81-12.5-22.57-11.32-15.15-27.85-25.6-45.25-32.45 0.39-0.05 1.1799-0.16 1.5699-0.2101-1.41-1.53-2.88-2.99-4.14-4.63-6.1-8.7999-11.28-18.19-16.4-27.58-20.04-39.35-32.87-83.22-31.71-127.67 1.27-20.53 5.55-41.74 17.4-58.95 8.72-13.43 22.23-23.5 37.38-28.56 20.58-7.0299 42.83-5.3199 63.94-1.8999 16.48 1.5399 33.62 0.2699 49.05-6.0801 16.9-6.09 31.49-17.37 43.7-30.35 12.67-13.72 22.5-29.86 30.17-46.83 16.8-38.4 23.1-81.41 17.45-122.96-2.58-17.17-7.3099-34.18-15.48-49.57-8.33-15.52-20.02-29.65-35.39-38.59-16.74-10.59-36.93-13.41-56.37-13.72l0.3201 1.0099c-7.74-24.04-22.58-46.61-44.64-59.64-5.26-3.58-11.35-5.49-17.11-8.02-2.39-0.58-4.74-1.21-7.03-2.03-2.9301-0.54-5.85-1.09-8.79-1.4301l1.23-1.2599c-7.2899-0.75-14.63-1.09-21.94-0.81 4.75-23.53 8.1-47.54 7-71.6-1.63-59.04-23.68-117.29-61.72-162.48-24.44-29.8-55.8-53.81-90.57-70.35-3.9399-1.9-7.8099-4.14-12.17-4.86-4.2101-4.16-7.6801-8.99-12.02-13.01-32.1-32.9-72.91-57.13-117.1-69.77-4.28-1.28-8.61-2.36-12.96-3.3-1.36-0.34-2.67-0.74-3.9901-1.12-7.0699-1.06-14.08-2.46-21.14-3.53-15.8-2.46-31.89-1.72-47.84-1.81-7.03-0.12-13.99 0.91-20.99 1.27-4.4698 0.7698-8.8898 2.0298-13.47 1.8498z" fill="#4FCAF4"/>
	<path d="m883.53 272.57c4.58 0.18 9-1.08 13.47-1.85 7-0.36 13.96-1.39 20.99-1.27 15.95 0.09 32.04-0.65 47.84 1.81 7.06 1.07 14.07 2.47 21.14 3.53 1.32 0.38 2.63 0.78 3.9901 1.12 4.35 0.94 8.68 2.02 12.96 3.3 44.19 12.64 85 36.87 117.1 69.77 4.34 4.02 7.8099 8.85 12.02 13.01 24.9 29.41 44.06 63.9 54.22 101.16 3.79 12.67 6.28 25.71 7.95 38.82 1.79 10.94 1.39 22.05 2.4401 33.05-0.38 12.02-0.9401 24.04-2.51 35.98-0.84 5.05-1.55 10.12-1.86 15.22l-0.5901-0.3c-10.74 58.71-42.37 113.23-87.6 152.1-3.6899 3.9-8.9099 6.22-11.68 10.97 4.64-0.46 8.89-2.42 13.05-4.41 29.32-12.87 58.18-26.78 86.48-41.78 17.75-9.72 36.34-18.01 55.73-23.87 20.15-6.24 41.6-8.3 62.54-5.58 2.9401 0.34 5.86 0.89 8.79 1.4301 2.29 0.8199 4.64 1.45 7.03 2.03 5.76 2.53 11.85 4.44 17.11 8.02 22.06 13.03 36.9 35.6 44.64 59.64 3.76 12.22 6.6 24.81 7.6699 37.57 0.4 14.98 0.49 29.99-0.1499 44.96-4.28 38.84-17.39 77.53-41.89 108.37-18.7 23.95-46.52 41.97-77.3 44.27-9.03-0.09-18.16 0.69-27.09-1-10.56-1.83-21.3-1.38-31.96-1.43-20.1-0.63-40.25 7.17-54.85 20.96-9.2999 9.32-15.64 21.1-20.28 33.32-2.76 9.97-5.62 20.09-5.6101 30.53-0.1599 13.31-0.47 26.66 0.5801 39.94 5.38 40.13 19.74 78.93 40.92 113.39 16.92 27.15 38.52 52.21 66.19 68.81 9.35 5.36 19.22 9.9299 29.63 12.79 4.27 1.1901 8.46 2.63 12.65 4.1101 17.4 6.85 33.93 17.3 45.25 32.45 5.39 6.76 9.27 14.58 12.5 22.57 4.5499 12.09 6.26 25.04 6.64 37.9-0.26 38.1-13.3 75.02-31.65 108.02-10.61 18.66-23.12 36.53-39.25 50.87-13.54 11.6-29.08 20.76-45.52 27.61-17.53 6.9301-36.26 11.63-55.21 11.26-8.1101 0.1-16.25-0.04-24.24-1.5599-21.58-3.91-41.95-13.38-59.22-26.85-30.55-23.81-51.79-57.44-67.87-92.21-10.6-22.55-18.39-46.25-25.98-69.94-0.41-1.2001-0.81-2.4-1.21-3.5601-7.42-20.39-16.56-40.74-31.24-57-10.78-12.38-26.5-21.23-43.22-20.99-17.13 0.27-32.92 8.28-46.95 17.48-8.75 6.48-17.56 13.01-25.14 20.86-5.95 6.04-12.06 11.94-17.93 18.06-26.69 30.18-49.52 63.56-69.98 98.2-3.75 6.8301-8.64 13.22-10.52 20.92-4.34 18.07-10.74 35.68-19.3 52.18-5.74 10.21-11.74 20.49-20.12 28.79-5.23 5.16-10.11 10.84-16.47 14.67-7.14 4.89-15.22 8.2899-23.58 10.42-6.88 1.7101-14.02 1.3201-21.04 1.3301-6.82 0.01-13.43-1.87-20.01-3.42-0.23-0.0599-0.69-0.1801-0.92-0.24-3.42-1.23-6.82-2.49-10.23-3.73-25.65-10.8-47.49-28.63-67.82-47.27-8-8.34-16.66-16.03-24.12-24.86-20.91-23.03-40.14-48.52-50.8-78.03-5.86-17.24-8.53-36.04-4.98-54.05 0.4-3.0299 0.85-6.0399 1.57-9 7.73-28.68 25.74-53.1 45.23-74.96 4.12-3.91 7.37-8.62 11.52-12.5 7.73-7.6 15.27-15.4 23.05-22.95 6.0699-4.91 11.35-10.67 17.02-16.01 7.29-6.6901 14.93-12.99 21.95-19.98 6.83-6.2001 14.02-12 20.52-18.56 7.23-6.4199 14.43-12.87 21.47-19.48 3.82-4.24 8.67-7.36 12.51-11.58 7.4-7.24 15.21-14.06 22.52-21.4 11.93-12.43 25.02-23.81 35.71-37.38 11.35-13.76 21.28-29.04 27-46.03 2.72-8.66 4.1-17.93 2.73-26.96-1.39-9.9301-5.72-19.37-12-27.15-5.22-5.5-10.42-11.13-16.69-15.45-14.1-10.05-30.19-16.85-46.51-22.4-25.89-8.45-52.8-13.27-79.78-16.53-5.67-0.42-11.71-1.2-17.04 1.32-11.44 4.67-23.48 7.57-35.66 9.47-9.07 0.66-18.19 0.36-27.28 0.31-5.28 0.19-10.25-1.8799-15.45-2.4 0-0.17-0.01-0.49-0.02-0.65-11.79-2.87-22.8-9.27-31.11-18.12-13.97-13.06-21.61-31.39-26.28-49.59l-0.32-0.9c-1.23-6.72-3.27-13.3-3.74-20.14-0.5-5.97-1.92-11.85-1.73-17.86-0.14-17.03-0.36-34.08 0.2-51.1 1.51-8.26 0.91-16.79 2.63-25.01 0.51-4.66 1-9.31 1.53-13.95 3.48-22.96 10.66-46.31 26.22-64.12 6.51-6.61 12.83-13.63 20.98-18.28 7.17-4.62 15.13-7.78 23.06-10.8 5.3-1.5 10.64-2.8 16.02-4 10.86-1.84 21.87-3.29 32.91-2.86 13.76-0.86 27.4 1.59 41.05 2.86 10.39 1.77 20.8 3.55 31.07 6.02 3.02 0.72 6.11 1.25 9.04 2.36 2.95 0.55 5.92 1.12 8.77 2.11 2.36 0.62 4.74 1.21 7.09 1.89 12.8 3.9 25.65 7.69 38.2 12.34 1.6 0.59 3.29 0.9 4.98 1.22-0.67 0.16-1.34 0.34-2 0.52 5.23 0.62 9.9901 3.02 14.84 4.9 1.02 0.3 2.03 0.61 3.05 0.94 13.33 5.61 26.89 10.67 39.97 16.84 3.71 1.55 7.28 3.89 11.46 3.73-5.51-4.14-10.1-9.33-15.03-14.1-27.01-25.8-47.42-58.06-61.26-92.63-0.63-1.81-1.2-3.64-1.72-5.47-0.17-0.02-0.52-0.06-0.69-0.08-1.0699-5.6-3.42-10.83-4.95-16.3-0.84-3.42-1.52-6.91-2.97-10.14-0.56-5.07-2.48-9.87-2.87-14.97-1.52-4.88-1.96-9.99-2.41-15.05-2.77-18.2-2.3-36.7-1.66-55.03 1.83-8.56 1.3-17.41 3.4-25.92 0.18-1.35 0.32-2.7 0.49-4.05l0.48-0.82c0.66-6.14 2.27-12.15 3.93-18.09 1.02-3.61 1.94-7.25 3.05-10.83 10.41-32.72 26.93-63.51 48.86-89.95 7.65-9.97 17.18-18.25 25.86-27.28 13.76-12.59 28.83-23.76 44.88-33.26 10.94-6 21.84-12.32 33.67-16.41 0.01-0.15 0.05-0.44 0.07-0.59 11.9-3.95 23.54-9.07 35.95-11.3 0.02-0.19 0.06-0.58 0.08-0.77 6.44-0.38 12.47-3.2 18.97-3.2-0.01-0.2099-0.02-0.6399-0.02-0.8599m-96.49 47.36c-29.88 18.18-55.72 42.85-75.3 71.83-22.64 33.66-36.91 73.03-40.38 113.49-2.06 20.91-1.12 42.07 2.31 62.79 6.21 38.02 22.03 74.31 45.09 105.13 6.73 9.17 14.48 17.51 22.17 25.86 15.6 14.81 32.3 28.83 51.43 38.87-6-5.75-12.81-10.59-18.69-16.47-6.85-5.83-12.67-12.72-18.69-19.38-40.85-47.21-62.29-110.73-58.01-173.03 3.48-55.28 26.83-108.96 64.68-149.35 6.62-6.39 12.76-13.29 19.92-19.1 38.8-33.38 88.36-53.94 139.42-57.63 38.26-2.96 77.14 3.74 112.41 18.79 9.28 3.79 17.98 8.81 27 13.13-10.39-9.14-22.54-16.12-34.72-22.59-39.21-20.91-84.42-30.08-128.69-27.06-38.76 2.32-76.79 14.57-109.95 34.72m18.69 105.83c-12.71 7.14-23 19.11-26.7 33.36-1.9 7.8-2.73 15.99-1.07 23.91 2.08 14.17 10.63 26.61 21.59 35.51 2.22 3.08 5.14 5.57 8.21 7.79 9.65 6.82 21.29 11.36 33.26 10.75 13.47 0.76 26.9-4.24 37.21-12.8 12.91-10.68 20.28-27.58 19.62-44.3-0.8-13.68-6.31-27.51-16.77-36.64-1.42-2.91-4.61-4.42-6.63-6.87-7.11-7.84-16.72-13.07-26.78-16.04-13.98-3.52-29.35-1.81-41.94 5.33m169.92 5.91c-11 8.88-17.95 22.29-19.59 36.27-1.66 15.18 3.46 30.93 13.64 42.31 2.79 2.93 5.76 5.69 8.52 8.66l0.33 0.13c10.34 11.57 25.87 18.69 41.47 18.04 19.91 1 39.72-10.4 49.41-27.72 4.62-8.02 6.7799-17.2 7.23-26.38-0.15-15.1-6.02-30.55-17.67-40.49-1.5-2.86-4.5-4.51-6.64-6.83-9.3099-9.51-22.01-15.72-35.31-16.74-14.72-1.34-30.15 3.01-41.39 12.75m-170.63 151.31c-0.8 12.93 1.32 25.89 4.85 38.31 5.02 16.29 12.83 31.87 24 44.82 4.97 5.81 9.77 11.95 15.85 16.63 11.84 12.28 26.46 21.78 42.17 28.36 25.81 10.6 55.13 12.19 82 4.7401 17.88-5.06 34.76-13.89 48.68-26.26 27.87-23.63 44.32-60.02 43.74-96.56-0.16-6.17-4.0701-11.68-9.5701-14.31-2.84-6.68-10.62-10.81-17.77-9.72-7.45 0.84-13.8 7.56-14.11 15.07-0.14 6.35-0.39 12.72-1.85 18.94-3.23 18.05-12.33 34.81-25.22 47.79-19.74 20.65-49.51 30.98-77.82 27.44-15.29-1.9-30.07-7.69-42.62-16.63-3.94-2.5099-7.34-5.74-10.32-9.3-13.26-16.31-20.92-37.23-20.56-58.29-0.14-6.41-3.8799-12.51-9.8-15.12-2.61-6.05-9.06-10.37-15.7-10.05-7.75 0.1099-15.32 6.2199-15.95 14.14m-241.62 116.37c-1.79 4.05 0.13 8.3 2.35 11.73 9.1 17.3 18.33 34.54 27.44 51.84 1.57 2.99 3.52 5.83 4.54 9.09-1.27 2.47-3.74 4.09-5.61 6.11-17.55 17.46-34.98 35.05-52.55 52.49-2.24 2.27-4.78 4.9-4.61 8.35-0.27 2.97 1.61 5.49 3.57 7.5099 16.91 16.84 33.74 33.76 50.64 50.6-6.44 10.85-13.15 21.53-19.7 32.31-4.28 7.07-9.0099 13.88-12.9 21.18-2.61 5.27 1.21 12.53 7.34 12.43 4.76 0.93 8.04-3.01 10.09-6.7-0.91 1.2401-0.29 2.98 0.85 3.88 2.59 2.9 7.06 3.4 10.6 2.25 4.05-2.31 6.08-6.79 8.13-10.76 33.2 5.3701 66.43 13.53 96.37 29.26 16.29 8.54 31.43 19.86 42.47 34.71 9.89 12.94 14.87 29.18 15.33 45.36-0.38 20.62-8.13 40.42-18.97 57.73-9.48 15.35-21.04 29.38-33.64 42.26-4.32 5.09-9.12 9.73-14.17 14.09-38.39 38.29-79.77 73.45-119.22 110.62-8.97 8.7101-18.38 17.02-26.63 26.45-13.45 14.02-26.26 28.85-36.39 45.49-8.08 12.8-14.06 27.19-15.66 42.35-1.35 8.6901-0.08 17.53 1.68 26.08 4.43 18.89 14.13 36.08 25.33 51.75 10.33 14.48 22.2 27.79 34.54 40.57 12.86 13.17 26.54 25.58 41.37 36.5 15.55 10.91 32.56 21.18 51.78 23.48 4.85 0.36 10.02 1.14 14.62-0.92-10.62-2.25-20.89-6.1-30.32-11.46-18.39-10.23-34.49-23.98-49.79-38.28-12.64-12.38-24.77-25.3-35.86-39.09-11.9-15.1-22.69-31.32-29.74-49.28-6.44-16.52-8.33-35.15-3.29-52.29 2.53-9.5 7.03-18.28 11.75-26.84 10.64-17.4 23.73-33.25 38.11-47.67-2.62 31.16-5.54 62.31-8.19 93.47-0.58 5.47 4.65 9.8101 9.89 9.4399 27.97 0.0601 55.94 0.01 83.91 0.02 5.13 25.34 10.41 50.66 15.74 75.96 1.01 4.96 6.96 7.0299 11.41 5.58 28.56-7.14 57.12-14.29 85.68-21.42 4.13-0.71 8.19-4.1899 7.83-8.6699 0.2-2.4701-0.88-4.7001-2.1-6.7201-0.97-0.1299-2.91-0.3899-3.88-0.5199 0.51-0.2201 1.52-0.66 2.02-0.88 4.3 0.5 9.18-0.99 11.57-4.79 2.14-4.47 0.66-10.71-4.21-12.65-5.02-1.61-10.08 0.79-14.96 1.8201-23.28 5.64-46.4 11.91-69.68 17.55-4.3701-22.4-9.25-44.7-13.77-67.07-0.73-3.48-1.13-7.1901-3.12-10.22-1.8-2.0801-4.59-3.12-7.3-3.0901-27.36-0.09-54.72 0.13-82.08-0.12 2.72-28.23 4.99-56.51 7.65-84.75 0.38-2.78-1-5.33-1.29-8.01 6.44-6.5699 13.55-12.5 20.2-18.88 28.6-26.08 57.51-51.84 85.56-78.51 4.91-5.4199 10.62-10.01 15.81-15.13 15.75-15.65 31.15-31.91 43.36-50.55 8.78-13.28 16.1-27.77 19.64-43.37 4.51-18.25 2.77-38.23-6.01-54.95-7.4-15.04-19.82-27.02-33.52-36.37-15.45-10.48-32.67-18.09-50.3-24.06-23.44-7.83-47.73-12.89-72.19-16.22-3.49-0.52-7.12 0.12-10.5-1.01 1.81-0.2 3.64-0.23 5.45-0.44 2.95-3.84 5.07-8.25 7.74-12.28 7.12-11.85 14.75-23.39 21.59-35.4 2.07-3.29 1.73-7.75-1.07-10.5-16.82-16.94-33.85-33.68-50.57-50.72 19.47-19.69 39.13-39.19 58.69-58.79 3.35-2.95 3.43-8.22 1.17-11.85-12.4-23.26-24.63-46.61-37.12-69.81-3.15-6.68-13.35-5.33-16.46 0.73-2.42-7.0703-14.05-7.0303-16.44-3e-4m738.23-2.8c4.71 1.46 9.71 1.74 14.43 3.24 15.55 4.36 29.13 14.85 37.61 28.56 12.27 18.83 17.22 41.47 18.81 63.62-0.0699 10.67 0.6 21.39-0.79 32-2.2 20.65-7.2999 41.06-15.66 60.09-7.22 17.15-17.64 33.02-30.66 46.32-13.39 12.84-30.45 22.36-49.1 24.28-0.03 0.2401-0.0801 0.73-0.1 0.97 4.2899 0.06 8.58 0.23 12.88 0.1 15.48-0.78 30.65-6.33 43.05-15.6 14.92-10.78 26.26-25.84 35.04-41.87 18.01-33.84 25.64-72.99 22.68-111.12-1.98-21.93-7.62-44.26-20.55-62.42-8.41-12.23-21.01-21.56-35.32-25.59-10.44-3.38-21.51-3.02-32.32-2.58m-805.02 15.91c-14.85 3.75-28.96 11.52-38.81 23.43-11.19 13.64-17.03 30.89-19.65 48.15-3.06 22.18-5.59 44.54-5.15 66.96-0.41 22.11 1.46 44.57 8.37 65.69 5.28 15.49 14.46 31.12 29.95 38.14 11.43 5.12 24.52 6.72 36.89 4.8-8.68-1.71-17.6-3.59-24.99-8.73-13.88-9.01-21.27-24.82-25.81-40.18-5.22-19.1-7.08-39.01-6.8-58.76-0.29-19.06 1.56-38.07 3.83-56.97 1.34-11.3 3.26-22.61 7.17-33.34 5.18-15.06 14.64-28.98 28.07-37.82 15.24-9.95 33.68-13.97 51.67-14.53l0.01-1.26c-14.99-0.14-30.18 0.61-44.75 4.42m703.32 12.53c19.72 15.11 39.82 29.74 59.61 44.75-16.69 18.93-33.34 37.9-50.05 56.81-2.29 2.66-4.85 5.11-6.79 8.06-2.47 3.81-1.0699 9.49 2.76 11.85 23.12 12.7 46.63 24.74 69.66 37.56-8.13 9.53-17.11 18.31-25.44 27.67-13.28 13.98-26.2 28.32-39.5 42.27l0.9099-1.54c-17.44 1.54-34.87 6.45-49.7 15.96-15.47 9.63-27.91 23.92-35.76 40.33-9.13 18.37-13.01 38.94-13.84 59.31-1.3301 46.9 11.73 93.26 32.16 135.17 17.13 33.71 39.51 65.48 69.32 89.15 0.48-0.34 1.46-1.01 1.9399-1.35-2 2.48-3.47 5.8201-2.23 9 8.12 24.7 17.16 49.1 25.18 73.84-30.07 4.92-60.11 10.02-90.18 14.97-2.54 0.4099-5.2999 1.1799-6.8199 3.45-3.04 3.9-1.92 9.12-2.0801 13.7-0.0699 27.9 0.17 55.8-0.11 83.7-25.65-0.1801-51.3 0-76.95-0.11-3.6-0.23-7.34 1.1899-9.26 4.37-3.15 4.13-0.87 10.49 3.4399 12.82 3.89 0.89 7.9401 0.27 11.91 0.42 0.79 2.2899 1.21 4.9299 3.13 6.65 2.5701 2.45 6.4301 2.25 9.75 2.46 27.02-0.0601 54.06-0.01 81.09-0.04 3.89 0 8.4801-0.6699 10.71-4.28 1.86-3.7 1.4199-7.99 1.48-11.98-0.0601-28.73-0.02-57.46-0.03-86.19 31.42-5.2001 62.85-10.35 94.26-15.58 5.46-0.6499 9.33-6.6599 7.0699-11.82-7.97-23.79-16.4-47.41-24.43-71.17 5.8099 2.25 11.7 4.3 17.71 6 13.72 4.1001 27.19 10.32 37.48 20.51 8.4801 7.62 13.95 18.07 17.24 28.87 4.9401 17.63 3.66 36.32-0.08 54.05-4.29 20.38-11.89 39.97-21.47 58.42-8.92 16.95-19.61 33.16-33.11 46.84-18.58 17.11-41.72 29.31-66.42 34.72-5.23 1.34-10.69 1.39-15.87 2.9301 8.6901-0.12 17.47 0.7 26.07-0.9601 13.91-2.0499 27.4-6.6 39.99-12.82 14.1-7.1801 27.57-16.07 38.26-27.86 11.33-12.46 20.48-26.78 28.35-41.62 11.11-21.07 19.56-43.7 23.4-67.26 3.13-18.91 2.7401-38.97-5.0099-56.77-7.5801-16.59-22.6-28.97-39.41-35.49-5.9-2.46-12.05-4.2-18.13-6.08-10.76-3.37-21.02-8.2201-30.67-14.01-2.37-1.3201-3.53-3.87-5.45-5.65-2.6-1.6-5.84-1.84-8.3201-3.64-18.72-13.77-34.53-31.13-48.15-49.87-23.53-32.61-40.29-69.91-50.21-108.82-5.73-23.34-8.9399-47.45-7.76-71.51 1.3101-23.1 6.89-46.54 19.51-66.18 9.02-14.65 22.21-26.59 37.49-34.44 7.05-3.79 14.76-6.06 22.35-8.49-2.62 4.88 0.4399 11.9 6.1 12.68 4.23 1.06 7.87-1.79 10.53-4.72 2.59 4.11 7.9299 6.17 12.43 3.9399 5.48-4.11 9.48-9.8199 14.39-14.55 18.87-20.47 37.94-40.74 56.89-61.14 2.5-3.1801 6.52-5.8101 6.64-10.25 0.23-3.96-2.4301-7.39-5.91-8.97-22.69-12.13-45.39-24.26-68.07-36.43 2.35-3.49 5.3899-6.42 8.13-9.59 14.29-16.38 28.71-32.64 43.04-48.98 2.49-2.92 6.09-5.91 5.42-10.18 0.09-5.62-5.53-8.13-9.29-11.11-20.31-15.38-40.84-30.47-61.21-45.76-4.1801-3.29-10.61-1.74-13.33 2.68-3.0299-2.4-6.3999-5.3-10.57-4.34-7.3599 0.57-10.01 11.46-4.1898 15.64m-399.01 43.89c-8.91 4.49-11.4 14.71-15.16 23.08-4.04 10.33-7.9 20.9-9.64 31.88-1.9 8.56-2.82 17.65-0.24 26.18 1.77 8.48 8.83 15.33 17.02 17.73 3.13 5.53 7.88 10.46 14.09 12.39 7.32 2.99 15.36 2.12 23.07 2.13 12.15-0.82 23.92-4.28 35.49-7.9 17.33-5.99 34.25-13.25 50.35-22.04 7.13 2.36 14.7 2.7 22.13 3.31 11.67 0.04 23.69-1.74 33.92-7.7 12.31 7.15 25.31 13.02 38.39 18.63 15.06 6.04 30.51 11.48 46.61 13.94 8.2101 0.98 16.71 1.47 24.75-0.79 8.2301-2.25 14.64-9.61 16-18 1.78-12.4-0.9199-24.92-4.86-36.65-3.97-10.96-8.27-21.84-13.69-32.18-2.8101-5.57-8.13-9.94-14.33-11.04-3.6699-8.56-12.68-14.1-21.86-14.44-13.16-0.52-26.58-0.69-39.38 2.85-11.81 2.48-23.24 6.31-34.64 10.21-4.08 1.41-7.97 3.4-12.21 4.33-1.41-2.28-2.83-5.11-5.68-5.75-8.78-2.36-17.88-3.81-27-3.43-8.55-0.31-17.3 1.33-24.82 5.52-2.99 1.29-3.1 4.9-4.16 7.54-6.36-3.66-13.45-5.9-20.17-8.82-16.35-6.45-33.33-11.64-50.83-13.72-7.79-1.13-15.82 0.02-23.15 2.74m92.84 166.89c-12.24 11.42-19.13 28.48-17.91 45.21 0.15 17.67 10.22 33.9 23.75 44.66 4.45 5.99 10.99 9.96 17.47 13.44 11.12 5.75 24.02 6.75 36.29 5.4401 8.73-1.4401 17.16-4.72 24.54-9.62 15.74-10.8 26.41-29.56 25.37-48.91 0.46-11.28-3.31-22.44-9.48-31.78-3.06-4.12-5.97-8.6-10.39-11.39-8.94-11.59-22.28-19.9-36.75-22.37-18.68-3.71-39.2 1.97-52.89 15.32m3 141.96c-6.31 5.8-12.15 12.37-15.74 20.24-7.52 16.41-7.36 36.54 1.6 52.37 4.25 7.78 10.34 14.4 17.07 20.1 7.34 9 18.14 14.87 29.36 17.56 16.4 4.27 34.58 1.24 48.59-8.33 13.78-9.04 23.29-24.3 25.39-40.62 0.5699-9.15 0.5699-18.63-2.79-27.3-3.37-8.67-8.12-17.21-15.54-23.05-5.95-7.5199-13.57-13.78-22.02-18.36-20.92-10.39-47.99-7.8901-65.92 7.3899z" fill="#E2925F"/>
	<path d="m787.04 319.93c33.16-20.15 71.19-32.4 109.95-34.72 44.27-3.02 89.48 6.15 128.69 27.06 12.18 6.47 24.33 13.45 34.72 22.59-9.02-4.32-17.72-9.34-27-13.13-35.27-15.05-74.15-21.75-112.41-18.79-51.06 3.69-100.62 24.25-139.42 57.63-7.16 5.81-13.3 12.71-19.92 19.1-37.85 40.39-61.2 94.07-64.68 149.35-4.28 62.3 17.16 125.82 58.01 173.03 6.02 6.66 11.84 13.55 18.69 19.38 5.88 5.88 12.69 10.72 18.69 16.47-19.13-10.04-35.83-24.06-51.43-38.87-7.69-8.35-15.44-16.69-22.17-25.86-23.06-30.82-38.88-67.11-45.09-105.13-3.43-20.72-4.37-41.88-2.31-62.79 3.47-40.46 17.74-79.83 40.38-113.49 19.58-28.98 45.42-53.65 75.3-71.83z" fill="#FFE3BB"/>
	<path d="m1133 361.99c4.36 0.72 8.23 2.96 12.17 4.86 34.77 16.54 66.13 40.55 90.57 70.35 38.04 45.19 60.09 103.44 61.72 162.48 1.1 24.06-2.25 48.07-7 71.6 7.3101-0.28 14.65 0.06 21.94 0.81l-1.23 1.2599c-20.94-2.72-42.39-0.66-62.54 5.58-19.39 5.86-37.98 14.15-55.73 23.87-28.3 15-57.16 28.91-86.48 41.78-4.1599 1.99-8.4099 3.95-13.05 4.41 2.77-4.75 7.99-7.07 11.68-10.97 45.23-38.87 76.86-93.39 87.6-152.1l0.5901 0.3c0.3099-5.1 1.02-10.17 1.86-15.22 1.5699-11.94 2.13-23.96 2.51-35.98-1.05-11-0.65-22.11-2.4401-33.05-1.6699-13.11-4.1599-26.15-7.95-38.82-10.16-37.26-29.32-71.75-54.22-101.16z" fill="#5AA6C8"/>
	<path d="m805.73 425.76c12.59-7.14 27.96-8.85 41.94-5.33 10.06 2.97 19.67 8.2 26.78 16.04 2.02 2.45 5.21 3.96 6.63 6.87 1.66 5.53 5.13 10.35 6.38 16.02 4.36 15.72 1.05 33.34-8.56 46.5-8.57 12.01-22.28 20.05-36.79 22.34-9.28 1-18.93 0.8-27.78-2.48-5.15-1.91-9.95-4.62-14.78-7.18-10.96-8.9-19.51-21.34-21.59-35.51-1.66-7.92-0.83-16.11 1.07-23.91 3.7-14.25 13.99-26.22 26.7-33.36m13.62 17.73c-6.35 1.2-11.33 5.94-14.55 11.32-3.05 5.84-3.22 13.02-0.68 19.08 2.15 6.04 7.63 10.3 13.49 12.44 6.84 1.33 14.6 1.13 20.21-3.57 11.65-7.56 11.45-26.18 1.18-34.8-5.49-4.24-12.87-6.1-19.65-4.47z" fill="#DE6F5E"/>
	<path d="m975.65 431.67c11.24-9.74 26.67-14.09 41.39-12.75 13.3 1.02 26 7.23 35.31 16.74 2.14 2.32 5.14 3.97 6.64 6.83 1.89 5.37 5.24 10.11 6.71 15.64 4.7001 15.49 2.13 33.14-7.1599 46.44-8.63 12.83-23.01 21.62-38.3 23.69-10.26 1.06-21 0.45-30.5-3.86-3.73-1.79-7.26-4.01-11.19-5.36l-0.33-0.13c-2.7599-2.97-5.73-5.73-8.52-8.66-10.18-11.38-15.3-27.13-13.64-42.31 1.6399-13.98 8.5899-27.39 19.59-36.27m20.57 11.67c-6.53 1.27-11.76 6.45-14.6 12.27-2.72 6.81-2.61 15.04 1.25 21.42 5.69 11.27 22.65 14.36 31.9 5.68 10.98-8.4 10.62-26.9-0.03-35.41-4.93-4.6-12.19-5.24-18.52-3.96z" fill="#DE6F5E"/>
	<path d="m819.35 443.49c6.78-1.63 14.16 0.23 19.65 4.47 10.27 8.62 10.47 27.24-1.18 34.8-5.61 4.7-13.37 4.9-20.21 3.57-5.86-2.14-11.34-6.4-13.49-12.44-2.54-6.06-2.37-13.24 0.68-19.08 3.22-5.38 8.2-10.12 14.55-11.32z" fill="#E2925F"/>
	<path d="m996.22 443.34c6.33-1.28 13.59-0.64 18.52 3.96 10.65 8.51 11.01 27.01 0.03 35.41-9.25 8.68-26.21 5.59-31.9-5.68-3.86-6.38-3.97-14.61-1.25-21.42 2.84-5.82 8.07-11 14.6-12.27z" fill="#E2925F"/>
	<path d="m1065.7 458.13c-1.47-5.53-4.8199-10.27-6.71-15.64 11.65 9.94 17.52 25.39 17.67 40.49-0.4501 9.18-2.61 18.36-7.23 26.38-9.6901 17.32-29.5 28.72-49.41 27.72-15.6 0.65-31.13-6.47-41.47-18.04 3.93 1.35 7.46 3.57 11.19 5.36 9.5 4.31 20.24 4.92 30.5 3.86 15.29-2.07 29.67-10.86 38.3-23.69 9.29-13.3 11.86-30.95 7.16-46.44z" fill="#B9503F"/>
	<path d="m887.46 459.36c-1.25-5.67-4.72-10.49-6.38-16.02 10.46 9.13 15.97 22.96 16.77 36.64 0.66 16.72-6.71 33.62-19.62 44.3-10.31 8.56-23.74 13.56-37.21 12.8-11.97 0.61-23.61-3.93-33.26-10.75-3.07-2.22-5.99-4.71-8.21-7.79 4.83 2.56 9.63 5.27 14.78 7.18 8.85 3.28 18.5 3.48 27.78 2.48 14.51-2.29 28.22-10.33 36.79-22.34 9.61-13.16 12.92-30.78 8.56-46.5z" fill="#B9503F"/>
	<path d="m805.02 582.98c0.63-7.92 8.2-14.03 15.95-14.14 6.64-0.32 13.09 4 15.7 10.05 1.52 7.3 1.12 14.82 2.44 22.16 2.8 16.48 10.18 32.11 21.01 44.84 2.15 2.51 4.23 5.09 6.26 7.72 0.16-0.33 0.48-0.98 0.65-1.31 2.98 3.56 6.3799 6.79 10.32 9.3 12.55 8.94 27.33 14.73 42.62 16.63 28.31 3.54 58.08-6.79 77.82-27.44 12.89-12.98 21.99-29.74 25.22-47.79 1.46-6.22 1.71-12.59 1.85-18.94 0.3101-7.51 6.66-14.23 14.11-15.07 7.15-1.09 14.93 3.04 17.77 9.72 2.12 7.91 0.5701 16.12-0.15 24.11-3.84 27.91-17.27 54.54-37.86 73.84-28.31 28.03-70.69 40.41-109.75 33.29-17.21-3.09-33.93-9.61-48.28-19.66-3.58-2.64-7.11-5.36-10.98-7.55-6.08-4.68-10.88-10.82-15.85-16.63-11.17-12.95-18.98-28.53-24-44.82-3.5299-12.42-5.6499-25.38-4.8499-38.31m4.84-1.19c-2.95 2.9901-1.33 7.51-1.2 11.21 1.32 22.85 9.84 45.26 24.16 63.12 16.46 21.27 40.87 36.19 67.21 41.5 9.85 2.19 19.96 2.14 29.99 1.98 26.52-1.48 52.35-12.69 71.5-31.1 13.1-12.56 23.55-28.11 29.3-45.38 4.3601-12.79 6.9901-26.38 6.0601-39.92-0.76-0.68-1.5-1.37-2.22-2.04-1.9701 0.35-4.77-0.3199-5.8 1.9-0.78 8.82-1.03 17.75-3.25 26.39-4.6 19.32-14.66 37.44-29.13 51.1-18.14 18.55-43.67 29.2-69.48 30.42-25.29 0.98-50.83-7.58-70.48-23.57-24.68-19.66-39.6-50.92-39.36-82.47 0-3.8001-4.61-4.6201-7.3-3.1401z" fill="#DE6F5E"/>
	<path d="m836.67 578.89c5.92 2.61 9.66 8.71 9.8 15.12-0.36 21.06 7.3 41.98 20.56 58.29-0.17 0.33-0.4901 0.98-0.65 1.31-2.03-2.63-4.11-5.21-6.26-7.72-10.83-12.73-18.21-28.36-21.01-44.84-1.3201-7.34-0.9201-14.86-2.4401-22.16z" fill="#B94F3F"/>
	<path d="m1056.7 578.71c5.5 2.63 9.41 8.14 9.5701 14.31 0.58 36.54-15.87 72.93-43.74 96.56-13.92 12.37-30.8 21.2-48.68 26.26-26.87 7.45-56.19 5.86-82-4.7401-15.71-6.58-30.33-16.08-42.17-28.36 3.8701 2.19 7.4 4.91 10.98 7.55 14.35 10.05 31.07 16.57 48.28 19.66 39.06 7.12 81.44-5.26 109.75-33.29 20.59-19.3 34.02-45.93 37.86-73.84 0.7201-7.9899 2.27-16.2 0.15-24.11z" fill="#B9503F"/>
	<path d="m809.86 581.79c2.69-1.48 7.3-0.66 7.3 3.14-0.24 31.55 14.68 62.81 39.36 82.47 19.65 15.99 45.19 24.55 70.48 23.57 25.81-1.22 51.34-11.87 69.48-30.42 14.47-13.66 24.53-31.78 29.13-51.1 2.22-8.64 2.47-17.57 3.25-26.39 1.03-2.22 3.83-1.55 5.8-1.9 0.72 0.67 1.46 1.36 2.22 2.04 0.9301 13.54-1.7 27.13-6.0601 39.92-5.75 17.27-16.2 32.82-29.3 45.38-19.15 18.41-44.98 29.62-71.5 31.1-10.03 0.16-20.14 0.21-29.99-1.98-26.34-5.31-50.75-20.23-67.21-41.5-14.32-17.86-22.84-40.27-24.16-63.12-0.13-3.6999-1.75-8.2199 1.2-11.21z" fill="#FFE2BA"/>
	<path d="m563.4 699.35c2.39-7.03 14.02-7.0699 16.44 0 12.09 22.83 24.12 45.69 36.28 68.49 1.88 3.39 2.57 7.99 0.07 11.26-2.14 2.87-4.89 5.19-7.38 7.7401-17.41 17.41-34.82 34.82-52.23 52.22 15.57 15.54 31.07 31.15 46.69 46.63 2.58 2.61 5.9 5.28 6.03 9.28 0.39 2.8701-0.92 5.55-2.42 7.89-9.27 14.63-18.19 29.48-27.21 44.28 3.59 0.32 7.18 0.69 10.75 1.27 3.38 1.13 7.01 0.4901 10.5 1.01 24.46 3.33 48.75 8.39 72.19 16.22 17.63 5.97 34.85 13.58 50.3 24.06 13.7 9.35 26.12 21.33 33.52 36.37 8.78 16.72 10.52 36.7 6.01 54.95-3.54 15.6-10.86 30.09-19.64 43.37-12.21 18.64-27.61 34.9-43.36 50.55-5.19 5.1201-10.9 9.7101-15.81 15.13-28.05 26.67-56.96 52.43-85.56 78.51-6.65 6.38-13.76 12.31-20.2 18.88 0.29 2.6801 1.67 5.23 1.29 8.01-2.66 28.24-4.93 56.52-7.65 84.75 27.36 0.25 54.72 0.03 82.08 0.12 2.71-0.0299 5.5 1.01 7.3 3.0901 1.99 3.0299 2.39 6.74 3.12 10.22 4.52 22.37 9.4 44.67 13.77 67.07 23.28-5.64 46.4-11.91 69.68-17.55 4.88-1.03 9.94-3.4301 14.96-1.8201 4.87 1.9401 6.35 8.1801 4.21 12.65-2.39 3.8-7.27 5.29-11.57 4.79-0.5 0.22-1.51 0.6599-2.02 0.88-4.63 2.08-9.69 2.8099-14.56 4.13-21.4 5.25-42.7 10.94-64.09 16.23-3.36 0.9199-7.42 0.63-9.89-2.0701-1.93-2.5499-2.44-5.8099-3.15-8.84-4.64-23.76-9.98-47.39-14.51-71.18-28.47-0.09-56.95 0-85.42-0.0399-4.84 0.35-8.93-4.1-8.42-8.88 2.39-28.36 5.2-56.69 7.45-85.07-2.64 2.79-5.08 5.77-7.7 8.5801-14.38 14.42-27.47 30.27-38.11 47.67-4.72 8.5601-9.22 17.34-11.75 26.84-5.04 17.14-3.15 35.77 3.29 52.29 7.05 17.96 17.84 34.18 29.74 49.28 11.09 13.79 23.22 26.71 35.86 39.09 15.3 14.3 31.4 28.05 49.79 38.28 9.43 5.36 19.7 9.21 30.32 11.46-4.6 2.0601-9.77 1.28-14.62 0.92-19.22-2.2999-36.23-12.57-51.78-23.48-14.83-10.92-28.51-23.33-41.37-36.5-12.34-12.78-24.21-26.09-34.54-40.57-11.2-15.67-20.9-32.86-25.33-51.75-1.76-8.55-3.03-17.39-1.68-26.08 1.6-15.16 7.58-29.55 15.66-42.35 10.13-16.64 22.94-31.47 36.39-45.49 8.25-9.4301 17.66-17.74 26.63-26.45 39.45-37.17 80.83-72.33 119.22-110.62 5.05-4.36 9.85-9 14.17-14.09 12.6-12.88 24.16-26.91 33.64-42.26 10.84-17.31 18.59-37.11 18.97-57.73-0.46-16.18-5.44-32.42-15.33-45.36-11.04-14.85-26.18-26.17-42.47-34.71-29.94-15.73-63.17-23.89-96.37-29.26-5.18-0.89-10.4-1.46-15.61-2.0699-1.33 2.22-2.67 4.45-3.97 6.7-2.05 3.69-5.33 7.63-10.09 6.7-6.1299 0.1-9.95-7.16-7.34-12.43 3.89-7.3 8.62-14.11 12.9-21.18 6.55-10.78 13.26-21.46 19.7-32.31-16.9-16.84-33.73-33.76-50.64-50.6-1.96-2.02-3.84-4.54-3.57-7.5099-0.17-3.45 2.37-6.08 4.61-8.35 17.57-17.44 35-35.03 52.55-52.49 1.87-2.02 4.34-3.64 5.61-6.11-1.02-3.26-2.97-6.1-4.54-9.09-9.11-17.3-18.34-34.54-27.44-51.84-2.2201-3.4299-4.1401-7.6799-2.3501-11.73z" fill="#BA5040"/>
	<path d="m579.84 699.35c3.11-6.06 13.31-7.41 16.46-0.73 12.49 23.2 24.72 46.55 37.12 69.81 2.26 3.63 2.18 8.9-1.17 11.85-19.56 19.6-39.22 39.1-58.69 58.79 16.72 17.04 33.75 33.78 50.57 50.72 2.8 2.75 3.14 7.21 1.07 10.5-6.84 12.01-14.47 23.55-21.59 35.4-2.67 4.03-4.79 8.44-7.74 12.28-1.81 0.21-3.64 0.2401-5.45 0.44-3.57-0.58-7.16-0.95-10.75-1.27 9.02-14.8 17.94-29.65 27.21-44.28 1.5-2.34 2.81-5.02 2.42-7.89-0.13-4-3.45-6.67-6.03-9.28-15.62-15.48-31.12-31.09-46.69-46.63 17.41-17.4 34.82-34.81 52.23-52.22 2.49-2.55 5.24-4.8701 7.38-7.7401 2.5-3.27 1.81-7.87-0.07-11.26-12.16-22.8-24.19-45.66-36.28-68.49z" fill="#FFE3BA"/>
	<path d="m1301.6 696.55c10.81-0.44 21.88-0.8 32.32 2.58 14.31 4.03 26.91 13.36 35.32 25.59 12.93 18.16 18.57 40.49 20.55 62.42 2.9601 38.13-4.6699 77.28-22.68 111.12-8.78 16.03-20.12 31.09-35.04 41.87-12.4 9.27-27.57 14.82-43.05 15.6-4.3 0.13-8.5901-0.04-12.88-0.1 0.0199-0.24 0.0699-0.73 0.1-0.97 18.65-1.92 35.71-11.44 49.1-24.28 13.02-13.3 23.44-29.17 30.66-46.32 8.36-19.03 13.46-39.44 15.66-60.09 1.39-10.61 0.7201-21.33 0.79-32-1.59-22.15-6.54-44.79-18.81-63.62-8.4801-13.71-22.06-24.2-37.61-28.56-4.7201-1.5-9.7201-1.78-14.43-3.24z" fill="#FFE3BA"/>
	<path d="m496.61 712.46c14.57-3.81 29.76-4.56 44.75-4.42l-0.01 1.26c-17.99 0.56-36.43 4.58-51.67 14.53-13.43 8.84-22.89 22.76-28.07 37.82-3.91 10.73-5.83 22.04-7.17 33.34-2.27 18.9-4.12 37.91-3.83 56.97-0.28 19.75 1.58 39.66 6.8 58.76 4.54 15.36 11.93 31.17 25.81 40.18 7.39 5.14 16.31 7.02 24.99 8.73-12.37 1.92-25.46 0.32-36.89-4.8-15.49-7.02-24.67-22.65-29.95-38.14-6.91-21.12-8.78-43.58-8.37-65.69-0.44-22.42 2.09-44.78 5.15-66.96 2.62-17.26 8.46-34.51 19.65-48.15 9.85-11.91 23.96-19.68 38.81-23.43z" fill="#BA5040"/>
	<path d="m1199.9 724.99c-5.8201-4.18-3.17-15.07 4.1899-15.64 4.17-0.96 7.54 1.94 10.57 4.34 20.31 15.2 40.57 30.46 60.98 45.51 2.62 1.92 5.7 4.2 5.8999 7.76 0.75 5.36-3.83 9.11-6.9099 12.81-16.68 18.9-33.43 37.74-49.88 56.84 23.21 12.31 46.35 24.73 69.48 37.18 5.33 2.4901 5.89 10.44 1.8199 14.32-23.44 25.37-47.15 50.49-70.52 75.92-2.66 2.93-6.3 5.78-10.53 4.72-5.66-0.78-8.72-7.8-6.1-12.68 0.3099-0.53 0.9399-1.58 1.25-2.11 13.3-13.95 26.22-28.29 39.5-42.27 8.33-9.36 17.31-18.14 25.44-27.67-23.03-12.82-46.54-24.86-69.66-37.56-3.83-2.36-5.23-8.04-2.76-11.85 1.9401-2.95 4.5-5.4 6.79-8.06 16.71-18.91 33.36-37.88 50.05-56.81-19.79-15.01-39.89-29.64-59.61-44.75z" fill="#BA5040"/>
	<path d="m1214.7 713.69c2.7201-4.42 9.15-5.97 13.33-2.68 20.37 15.29 40.9 30.38 61.21 45.76 3.76 2.98 9.38 5.49 9.29 11.11 0.6699 4.27-2.9301 7.26-5.42 10.18-14.33 16.34-28.75 32.6-43.04 48.98-2.7401 3.17-5.78 6.1-8.13 9.59 22.68 12.17 45.38 24.3 68.07 36.43 3.48 1.58 6.14 5.01 5.91 8.97-0.12 4.4399-4.14 7.0699-6.64 10.25-18.95 20.4-38.02 40.67-56.89 61.14-4.91 4.73-8.91 10.44-14.39 14.55-4.5 2.23-9.84 0.17-12.43-3.9399 23.37-25.43 47.08-50.55 70.52-75.92 4.0701-3.88 3.51-11.83-1.8199-14.32-23.13-12.45-46.27-24.87-69.48-37.18 16.45-19.1 33.2-37.94 49.88-56.84 3.08-3.7 7.6599-7.45 6.9099-12.81-0.2-3.56-3.2799-5.84-5.8999-7.76-20.41-15.05-40.67-30.31-60.98-45.51z" fill="#FFE2BA"/>
	<path d="m1388.5 743.46c19.44 0.31 39.63 3.13 56.37 13.72 15.37 8.94 27.06 23.07 35.39 38.59 8.17 15.39 12.9 32.4 15.48 49.57 5.65 41.55-0.6499 84.56-17.45 122.96-7.67 16.97-17.5 33.11-30.17 46.83-12.21 12.98-26.8 24.26-43.7 30.35-15.43 6.35-32.57 7.62-49.05 6.0801-21.11-3.42-43.36-5.13-63.94 1.8999-15.15 5.0601-28.66 15.13-37.38 28.56-11.85 17.21-16.13 38.42-17.4 58.95-1.16 44.45 11.67 88.32 31.71 127.67 5.12 9.39 10.3 18.78 16.4 27.58 1.26 1.64 2.73 3.1 4.14 4.63-0.39 0.05-1.1799 0.16-1.5699 0.2101-4.1901-1.4801-8.38-2.92-12.65-4.1101-10.41-2.86-20.28-7.4299-29.63-12.79-27.67-16.6-49.27-41.66-66.19-68.81-21.18-34.46-35.54-73.26-40.92-113.39-1.05-13.28-0.74-26.63-0.5801-39.94-0.0099-10.44 2.8501-20.56 5.6101-30.53 4.6399-12.22 10.98-24 20.28-33.32 14.6-13.79 34.75-21.59 54.85-20.96 10.66 0.05 21.4-0.4 31.96 1.43 8.9299 1.69 18.06 0.91 27.09 1 30.78-2.3 58.6-20.32 77.3-44.27 24.5-30.84 37.61-69.53 41.89-108.37 0.6399-14.97 0.5499-29.98 0.1499-44.96-1.0699-12.76-3.9099-25.35-7.6699-37.57l-0.3202-1.0102z" fill="#5AA6C8"/>
	<path d="m800.92 768.88c7.33-2.72 15.36-3.87 23.15-2.74 17.5 2.08 34.48 7.27 50.83 13.72 6.72 2.92 13.81 5.16 20.17 8.82 0.24 2.84-0.14 5.67-0.5 8.49-7.55-0.75-15.06-1.81-22.62-2.48-0.36-0.05-1.09-0.15-1.46-0.2-5.59-6.25-13.37-9.7-20.82-13.16-10.42-4.57-21.39-8.04-32.69-9.48-6.25-0.98-12.88-0.99-18.81 1.44-2.53 1.05-4.07 3.48-5.16 5.87-4.47 10.07-6.62 21.05-11.74 30.85-1.7 2.95-1.72 6.39-1.47 9.69-1.62 2.15-3.25 4.44-3.53 7.2-0.04-0.76-0.11-2.29-0.15-3.06 1.74-10.98 5.6-21.55 9.64-31.88 3.76-8.37 6.25-18.59 15.16-23.08z" fill="#51A37E"/>
	<path d="m1003.6 770.26c12.8-3.54 26.22-3.37 39.38-2.85 9.1801 0.34 18.19 5.88 21.86 14.44 3.41 7.78 7.1101 15.45 10.05 23.44 4.34 11.88 8.45 24.26 7.74 37.09 0.36 7.5-2.14 15.49-8.26 20.2-8.0699 5.98-18.7 6.52-28.34 5.51-9.6-0.58-18.84-3.46-28.02-6.1-21.04-7.01-41.7-15.52-60.87-26.72 1.26-7.08 3.58-14.01 3.51-21.26-0.09-9.81 1.27-20.35-3.9-29.21 4.24-0.93 8.13-2.92 12.21-4.33 11.4-3.9 22.83-7.73 34.64-10.21m32.47 2.52c-13.74 1.22-27.41 4.41-39.91 10.32-6 2.63-11.78 6.62-14.49 12.81l-0.44 0.04c-6.76-0.26-13.46 0.76-20.19 1.2 0.1 6.6 0.08 13.21 0.04 19.81 4.78-0.57 9.56-1.1 14.37-1.46 1.3 4.66 2.95 9.28 5.95 13.15 2.53 0.36 5.07 0.7599 7.64 0.99 12.38 0.94 24.63 3.11 36.83 5.43 11.68 2.78 23.58 5.24 34.53 10.34 3 1.51 6.41 3.26 7.66 6.6201 1.0499 2.72-1.1801 5.48-3.6001 6.5-2.71 1.03-5.6399 1.23-8.48 1.67-5.6699 0.99-11.26-1.03-16.94-0.86 5.53 1.59 11.16 2.96 16.94 3.35 4.7001 0.42 10.22 2.12 14.21-1.38 4.3999-2.03 7.01-6.48 8.3199-10.97 1.63-5.83-0.3099-12.06 1.78-17.81 1.26-3.95-3.53-6.59-3.22-10.47 0.34-4.82-2.65-8.8-4.05-13.2-2.08-5.72-3.22-11.8-6.2-17.16-0.5701-3.28-1.6901-6.42-2.75-9.55-1.8201-3.16-4.1001-6.36-7.78-7.4301-6.4999-2.0099-13.46-2.7899-20.22-1.9399m-65.62 61.3c7.71 4.81 16.56 7.15 24.97 10.38 8.18 2.63 16.38 5.22 24.66 7.54 13.07 3.44 26.55 6.95 40.18 5.31 2.12-0.47 5.33-1.6 4.79-4.36-7.03-5.84-16.35-7.65-24.89-10.25-20.34-5.15-41.18-8.45-62.13-9.59-2.59-0.44-5.14 0.15-7.58 0.97z" fill="#51A37E"/>
	<path d="m798.17 773.29c5.93-2.43 12.56-2.42 18.81-1.44 11.3 1.44 22.27 4.91 32.69 9.48 7.45 3.46 15.23 6.91 20.82 13.16-11.83-1.11-23.69-0.45-35.51 0.41l-0.59 0.02c-6.76-6.45-14.8-11.65-23.72-14.52-4.51-1.26-9.77-2.48-14.06 0.09-2.61 1.29-3.42 4.28-4.13 6.86-1.5 6.05-2.79 12.14-3.93 18.27-0.42 2.09-0.84 4.18-1.22 6.29 0.72 1.26 1.48 2.56 2.21 3.84-3.24 2.12-4.28 5.7-4.35 9.39-1.03 7.6-1.85 15.36-0.58 22.99 0.75 4.64 2.71 8.94 4.32 13.32-4.76-2.77-7.53-7.85-9.35-12.87-2.57-7.03 0.17-14.87-3.31-21.68 0.28-2.76 1.91-5.05 3.53-7.2-0.25-3.3-0.23-6.74 1.47-9.69 5.12-9.8 7.27-20.78 11.74-30.85 1.09-2.39 2.63-4.82 5.16-5.87z" fill="#6FB68E"/>
	<path d="m1036 772.78c6.76-0.85 13.72-0.07 20.22 1.9399 3.6799 1.07 5.96 4.27 7.78 7.4301-4.65-2.11-9.8201-3.32-14.88-2.01-10.27 1.92-19.08 8.79-24.63 17.49-8.28-1.29-16.66-1.56-25-2.1-5.97-0.61-11.96-0.25-17.89 0.3799 2.71-6.19 8.49-10.18 14.49-12.81 12.5-5.9099 26.17-9.0999 39.91-10.32z" fill="#6FB68E"/>
	<path d="m899.23 781.14c7.52-4.19 16.27-5.83 24.82-5.52 9.12-0.38 18.22 1.07 27 3.43 2.85 0.64 4.27 3.47 5.68 5.75 5.17 8.86 3.81 19.4 3.9 29.21 0.07 7.25-2.25 14.18-3.51 21.26 19.17 11.2 39.83 19.71 60.87 26.72 9.1801 2.64 18.42 5.52 28.02 6.1 9.64 1.0099 20.27 0.47 28.34-5.51 6.12-4.71 8.62-12.7 8.26-20.2 0.71-12.83-3.4-25.21-7.74-37.09-2.9399-7.99-6.64-15.66-10.05-23.44 6.2001 1.1 11.52 5.47 14.33 11.04 5.4199 10.34 9.72 21.22 13.69 32.18 3.9401 11.73 6.64 24.25 4.86 36.65-1.36 8.39-7.7699 15.75-16 18-8.0399 2.26-16.54 1.77-24.75 0.79-16.1-2.46-31.55-7.9-46.61-13.94-13.08-5.61-26.08-11.48-38.39-18.63-10.23 5.96-22.25 7.74-33.92 7.7-7.4301-0.61-15-0.95-22.13-3.31-16.1 8.79-33.02 16.05-50.35 22.04-11.57 3.62-23.34 7.08-35.49 7.9-7.71-0.01-15.75 0.86-23.07-2.13-6.21-1.93-10.96-6.86-14.09-12.39 14.21 4.05 29.16 1.23 43.19-2.2 22.26-6.12 43.75-15.02 63.98-26.1-2.35-7.37-5.48-14.62-5.73-22.47-0.88-6.59-0.67-13.24 0.23-19.81 0.36-2.82 0.74-5.65 0.5-8.49 1.0599-2.64 1.1699-6.25 4.1599-7.54m14.32-2.38c-5.27-0.24-10.14 2.16-14.02 5.57-0.41 5.22-1.2401 10.4-1.78 15.62-0.67 11.68-0.05 23.68 3.72 34.83 0.2401 0.49 0.72 1.47 0.96 1.96 8.61 3.14 18.25 3.2 27.27 2.1 8.63 0.27 17.13-2.16 24.69-6.2401 3.38-14.03 6.17-29.24 1.06-43.21-1.33-2.94-2.75-6.64-6.2-7.53-4.06-1.3-8.33-1.91-12.58-2.11-7.62-1.0699-15.44-2.2599-23.12-0.9899z" fill="#B95040"/>
	<path d="m913.55 778.76c7.68-1.27 15.5-0.08 23.12 0.99 3.15 1.38 6.67 3.06 7.89 6.57 4.16 10.68 3.7 22.49 2.25 33.68-0.71 4.34-0.75 9.05-2.92 12.96-4.03 3.27-9.33 4.36-14.19 5.88-9.02 1.1-18.66 1.04-27.27-2.1-0.24-0.49-0.72-1.47-0.96-1.96 0.57 0.16 1.69 0.47 2.25 0.6299 1.38 0.34 2.78 0.66 4.2 0.96 6.59 1.43 16.16-1.86 16.63-9.57 1.29-14.76 2.82-30.06-1.9-44.4-3-1.3099-5.99-2.6299-9.1-3.6399z" fill="#E2925F"/>
	<path d="m796.61 780.49c4.29-2.57 9.55-1.35 14.06-0.09 8.92 2.87 16.96 8.0699 23.72 14.52-9.04 0.77-17.95 2.55-26.75 4.69-5.11 1.63-9.89-1.66-14.95-1.89-0.62 3-1 6.4301-4.14 7.9 1.14-6.13 2.43-12.22 3.93-18.27 0.71-2.58 1.52-5.57 4.13-6.86z" fill="#86CCA7"/>
	<path d="m899.53 784.33c3.8799-3.41 8.75-5.81 14.02-5.57 3.11 1.01 6.1 2.33 9.1 3.64 4.72 14.34 3.19 29.64 1.9 44.4-0.47 7.71-10.04 11-16.63 9.57 1.13-0.45 2.27-0.88 3.42-1.3 2.04-10.21 0.2-20.59-0.3-30.86-0.84-6.69-0.46-13.55-2.1-20.13-1.66-0.6-4.21-1.17-5.03 0.93-4.93 8.02-4.09 17.94-4.24 26.99 0.53 7.87-0.18 16.35 4.05 23.41-0.56-0.16-1.68-0.47-2.25-0.6299-3.77-11.15-4.39-23.15-3.72-34.83 0.54-5.2201 1.37-10.4 1.78-15.62z" fill="#FECF67"/>
	<path d="m936.67 779.75c4.25 0.2 8.52 0.81 12.58 2.11 3.45 0.89 4.87 4.59 6.2 7.53 5.11 13.97 2.32 29.18-1.06 43.21-7.56 4.08-16.06 6.51-24.69 6.2401 4.86-1.52 10.16-2.61 14.19-5.88 2.17-3.91 2.21-8.62 2.92-12.96 1.45-11.19 1.91-23-2.25-33.68-1.22-3.5101-4.74-5.1901-7.89-6.5701z" fill="#DE6E5D"/>
	<path d="m1024.5 797.63c5.5499-8.7 14.36-15.57 24.63-17.49 5.0599-1.31 10.23-0.1 14.88 2.01 1.0599 3.13 2.1799 6.27 2.75 9.55 1.0199 6.47 2.3199 12.9 3.36 19.37-1.48-0.97-2.9601-1.93-4.42-2.88-1.3099-6.34-2.16-12.78-4.08-18.98-8.52 0.13-16.45 4.62-21.14 11.68-5.16-1.22-10.35-2.34-15.62-2.93-0.7001 2.46-1.34 4.93-1.9301 7.43 5.36 0.76 10.7 1.73 15.98 2.93-0.0499 1.48-0.09 2.97-0.12 4.46-5.76-1.01-11.5-2.16-17.33-2.6-0.06 2.23-0.11 4.47-0.15 6.71 5.16 1.29 10.47 1.78 15.64 3.03 2.39 0.34 3.51 2.66 4.85 4.39 4.26 6.25 10.12 11.18 15.92 15.94 2.79 2.36 6.15 3.9 9.6799 4.81 1.15-4.91 1.55-9.95 1.6201-14.98 1.2999 0.26 2.6 0.53 3.9199 0.81 0.9401 10.15 1.6801 20.93-2.8099 30.42-3.99 3.5-9.51 1.8-14.21 1.38-5.7799-0.39-11.41-1.76-16.94-3.35 5.6799-0.17 11.27 1.85 16.94 0.86 2.8401-0.44 5.77-0.64 8.48-1.67 2.42-1.02 4.65-3.78 3.6001-6.5-1.25-3.36-4.66-5.11-7.66-6.6201-10.95-5.1-22.85-7.56-34.53-10.34-2.99-5.49-4.33-11.62-5.1-17.76-14.83-2.96-29.99-1.67-44.99-2.22 0.18-2.21 0.37-4.41 0.57-6.6 15.12-1.8 30.31-0.05 45.39 1.26 0.1801-1.53 0.38-3.05 0.59-4.56-14.6-2.36-29.38-2.32-44.12-2.35 1.01-2.3 2.01-4.59 3.02-6.89l0.44-0.04c5.93-0.6299 11.92-0.99 17.89-0.3799 8.3401 0.54 16.72 0.81 25 2.1z" fill="#86CCA7"/>
	<path d="m903.91 785.01c0.82-2.1 3.3701-1.53 5.03-0.93 1.64 6.58 1.26 13.44 2.1 20.13 0.5 10.27 2.34 20.65 0.3 30.86-1.15 0.42-2.29 0.85-3.42 1.3-1.42-0.3-2.82-0.62-4.2-0.96-4.23-7.06-3.52-15.54-4.05-23.41 0.15-9.05-0.69-18.97 4.24-26.99z" fill="#FFE3BB"/>
	<path d="m1040.5 800.89c4.6899-7.06 12.62-11.55 21.14-11.68 1.9199 6.2 2.77 12.64 4.08 18.98 1.46 0.95 2.9401 1.91 4.42 2.88 0.37 2.15 0.76 4.3 1.14 6.46-1.3 0.05-2.5801 0.12-3.8501 0.2-0.09 1.27-0.2 2.53-0.2699 3.82-9.04-3.45-18.38-6.03-27.8-8.18-0.01 2-0.13 4.04 0.21 6.04 1.42 1.51 3.5801 1.91 5.5 2.52 5.24 1.32 10.47 2.73 15.54 4.66 2.3099 0.72 4.64 1.87 7.13 1.6299 0.42-1.95 0.64-3.9399 0.9299-5.9 1.15 0.57 2.3101 1.14 3.4901 1.74 0.2699 2.27 0.5499 4.54 0.7999 6.83-1.3199-0.28-2.62-0.55-3.9199-0.81-0.0701 5.03-0.4701 10.07-1.6201 14.98-3.5299-0.91-6.8899-2.45-9.6799-4.81-5.8-4.76-11.66-9.69-15.92-15.94-1.34-1.73-2.46-4.05-4.85-4.39-5.17-1.25-10.48-1.74-15.64-3.03 0.04-2.24 0.09-4.48 0.15-6.71 5.83 0.44 11.57 1.59 17.33 2.6 0.03-1.4901 0.0701-2.98 0.12-4.46-5.2799-1.2-10.62-2.17-15.98-2.93 0.59-2.5 1.23-4.97 1.9301-7.43 5.2699 0.5901 10.46 1.7101 15.62 2.9301m-1.05 7.36c4.4301 1.51 9 2.57 13.49 3.9 4.63 1.3199 8.9401 3.68 13.78 4.31-0.23-2.62-0.65-5.2-1.2-7.75-7.8201-3.11-15.92-5.42-24.04-7.59-1.02 2.27-1.61 4.68-2.03 7.13z" fill="#B7E0CF"/>
	<path d="m1066.8 791.7c2.98 5.36 4.12 11.44 6.2 17.16 1.4 4.4 4.39 8.38 4.05 13.2-0.3101 3.88 4.48 6.52 3.22 10.47-2.09 5.75-0.15 11.98-1.78 17.81-1.3099 4.49-3.92 8.94-8.3199 10.97 4.49-9.49 3.75-20.27 2.8099-30.42-0.25-2.29-0.53-4.56-0.7999-6.83-0.29-2.19-0.53-4.36-0.88-6.53-0.38-2.16-0.77-4.3101-1.14-6.46-1.0401-6.47-2.3402-12.9-3.3601-19.37z" fill="#6EB58E"/>
	<path d="m834.98 794.9c11.82-0.86 23.68-1.52 35.51-0.41 0.37 0.05 1.1 0.15 1.46 0.2 1.12 2.49 2.26 4.97 3.41 7.47-11.92-0.3799-23.88-1.08-35.77 0.07 0.62 1.44 1.18 2.93 1.97 4.31 5.44 0.91 10.94-0.63 16.42-0.32 6.98 0.32 14 0.58 20.91 1.73 0.37 2.29 0.76 4.59 1.15 6.9-12.14-1.09-24.35-1.09-36.52-0.6 0.74 7.08 0.62 14.3-1.52 21.16-9.69 1.64-19.43 3.14-28.95 5.65 1.81-2.18 3.81-4.37 4.64-7.15 1.78-5.45 0.18-11.15-0.48-16.63 8.6-1.67 17.34-2.32 26.02-3.44-0.66-2.35-1.32-4.69-2.02-7.01-8.4901 0.63-16.88 2.12-25.31 3.23-2.4 0.69-3.6-1.94-5.16-3.16 9.34-2.79 19.11-3.36 28.67-4.98-1.39-2.4101-2.87-4.7501-4.43-7.0201z" fill="#86CCA7"/>
	<path d="m807.64 799.61c8.8-2.14 17.71-3.92 26.75-4.69l0.59-0.02c1.56 2.27 3.04 4.61 4.43 7.02-9.56 1.62-19.33 2.19-28.67 4.98 1.56 1.22 2.76 3.85 5.16 3.16 8.43-1.11 16.82-2.6 25.31-3.23 0.7 2.32 1.36 4.66 2.02 7.01-8.68 1.12-17.42 1.77-26.02 3.44 0.66 5.48 2.2599 11.18 0.48 16.63-0.83 2.78-2.83 4.97-4.64 7.15-6.77 1.79-13.74 3.65-19.59 7.63-2.85 1.74-1.97 5.35-1.85 8.11-4.68-1.19-4.56-6.6-5.16-10.42-0.95-6.57 1.14-13.12 0.58-19.65-0.46-0.4-1.38-1.19-1.84-1.59 0.07-3.69 1.11-7.27 4.35-9.39-0.73-1.28-1.49-2.58-2.21-3.84 0.38-2.11 0.8-4.2 1.22-6.29 3.14-1.47 3.52-4.9 4.14-7.9 5.06 0.2301 9.84 3.5201 14.95 1.8901m-7.28 1.9c-3.02 0.59-6.09 1.5-8.6 3.34-1.43 2.08-1.3 4.76-1.66 7.17 6.54-1 12.78-3.32 19.1-5.19-1.26-3.51-5.08-6.1-8.84-5.32m-3.4 13.36c-2.84 0.88-6.19 1.39-8.13 3.88-0.77 1.91-0.47 4.08-0.64 6.12 6.9-2.01 13.69-4.42 20.75-5.88 2.39-0.65 5.01-0.78 7.22-1.99 0.36-2.37-0.56-5.56-3.24-6.07-5.42 0.85-10.63 2.68-15.96 3.94z" fill="#B6E0D0"/>
	<path d="m871.95 794.69c7.56 0.67 15.07 1.73 22.62 2.48-0.9 6.57-1.11 13.22-0.23 19.81-4.56-1.03-9.19-1.69-13.86-1.73 0.06 6.14-0.37 12.65-4.57 17.53-11.35-0.06-22.66 1.22-33.91 2.63 2.14-6.86 2.26-14.08 1.52-21.16 12.17-0.49 24.38-0.49 36.52 0.6-0.39-2.31-0.78-4.61-1.15-6.9-6.91-1.15-13.93-1.41-20.91-1.73-5.48-0.31-10.98 1.23-16.42 0.32-0.79-1.38-1.35-2.87-1.97-4.31 11.89-1.15 23.85-0.45 35.77-0.07-1.15-2.5-2.29-4.98-3.41-7.47m4.16 7.63c1.12 1.9 1.53 4.98 4.2 5.26 4.19 0.65 8.42 1.29 12.68 1.32 0.59-1.46 0.15-3.06 0.19-4.57-5.7-0.59-11.38-1.33-17.07-2.01z" fill="#6FB68E"/>
	<path d="m961.02 797.15c6.73-0.44 13.43-1.46 20.19-1.2-1.01 2.3-2.01 4.59-3.02 6.89 14.74 0.03 29.52-0.01 44.12 2.35-0.21 1.51-0.41 3.03-0.59 4.56-15.08-1.31-30.27-3.06-45.39-1.26-0.2 2.19-0.39 4.39-0.57 6.6 15 0.55 30.16-0.7401 44.99 2.22 0.77 6.14 2.11 12.27 5.1 17.76-12.2-2.32-24.45-4.49-36.83-5.43-2.57-0.23-5.11-0.63-7.64-0.99-3-3.87-4.65-8.4901-5.95-13.15-4.81 0.36-9.59 0.89-14.37 1.46 0.04-6.6 0.06-13.21-0.04-19.81m1.41 7.38c-0.17 1.5099-0.33 3.02-0.47 4.56 4.88 0.1 9.75-0.4301 14.55-1.38 0.34-1.39 0.7-2.78 1.07-4.16-5.07-0.07-10.13 0.34-15.15 0.98z" fill="#6FB68E"/>
	<path d="m800.36 801.51c3.76-0.78 7.58 1.81 8.84 5.32-6.32 1.87-12.56 4.19-19.1 5.19 0.36-2.41 0.23-5.09 1.66-7.17 2.51-1.84 5.58-2.75 8.6-3.34z" fill="#FCE3BA"/>
	<path d="m876.11 802.32c5.69 0.68 11.37 1.42 17.07 2.01-0.04 1.51 0.4 3.11-0.19 4.57-4.26-0.03-8.49-0.67-12.68-1.32-2.67-0.28-3.08-3.36-4.2-5.26z" fill="#51A37D"/>
	<path d="m1039.5 808.25c0.42-2.45 1.01-4.86 2.03-7.13 8.12 2.17 16.22 4.48 24.04 7.59 0.5499 2.55 0.97 5.13 1.2 7.75-4.84-0.63-9.15-2.9901-13.78-4.31-4.49-1.33-9.06-2.39-13.49-3.9z" fill="#FDE3BC"/>
	<path d="m962.43 804.53c5.02-0.64 10.08-1.05 15.15-0.98-0.37 1.38-0.73 2.77-1.07 4.16-4.8 0.95-9.67 1.48-14.55 1.38 0.14-1.54 0.3-3.05 0.47-4.56z" fill="#51A47D"/>
	<path d="m796.96 814.87c5.33-1.26 10.54-3.09 15.96-3.94 2.68 0.51 3.6 3.7 3.24 6.07-2.21 1.21-4.83 1.34-7.22 1.99-7.06 1.46-13.85 3.87-20.75 5.88 0.17-2.04-0.13-4.21 0.64-6.12 1.94-2.49 5.29-3 8.13-3.88z" fill="#FCE3BB"/>
	<path d="m1039.6 819.41c-0.34-2-0.22-4.04-0.21-6.04 9.42 2.15 18.76 4.73 27.8 8.18 0.38 0.19 1.13 0.57 1.5099 0.77-0.2899 1.96-0.5099 3.95-0.9299 5.9-2.49 0.2401-4.8201-0.91-7.13-1.6299-5.0699-1.9301-10.3-3.34-15.54-4.66-1.92-0.6101-4.08-1.0101-5.5-2.5201z" fill="#FDE3BC"/>
	<path d="m880.48 815.25c4.67 0.04 9.3 0.7 13.86 1.73 0.25 7.85 3.3799 15.1 5.73 22.47-20.23 11.08-41.72 19.98-63.98 26.1-14.03 3.43-28.98 6.25-43.19 2.2-8.19-2.4-15.25-9.25-17.02-17.73-2.58-8.53-1.66-17.62 0.24-26.18 0.04 0.77 0.11 2.3 0.15 3.06 3.48 6.81 0.74 14.65 3.31 21.68 1.82 5.02 4.59 10.1 9.35 12.87 10.19 5.31 21.64 0.33 32.17-1.01-6.7 0.22-13.42 0.09-20.11-0.45-3.36-0.24-6.39-1.81-9.38-3.19-0.12-2.76-1-6.37 1.85-8.11 5.85-3.98 12.82-5.84 19.59-7.63 9.52-2.51 19.26-4.01 28.95-5.65 11.25-1.41 22.56-2.69 33.91-2.6299 4.2-4.8801 4.63-11.39 4.57-17.53m-20.75 22.47c-13.17 1.36-26.36 2.95-39.3 5.83-7.95 1.94-16.13 3.6-23.38 7.53-0.98 0.8-2.97 1.31-2.57 2.97 0.92 2.69 3.95 3.66 6.52 3.96 11.69 1.11 23.41-0.77 34.8-3.31 12.91-2.9 25.64-6.55 38.27-10.48 5.17-1.9399 11.03-2.91 15.27-6.6899-9.8-1.7501-19.76-0.2701-29.61 0.1899z" fill="#51A27E"/>
	<path d="m1067.4 817.73c1.27-0.08 2.55-0.15 3.8501-0.2 0.35 2.17 0.59 4.34 0.88 6.53-1.1801-0.6-2.3401-1.17-3.4901-1.74-0.3799-0.2-1.1299-0.58-1.5099-0.77 0.0699-1.29 0.1799-2.55 0.2699-3.82z" fill="#87CBA8"/>
	<path d="m785.19 825.14c0.46 0.4 1.38 1.19 1.84 1.59 0.56 6.53-1.53 13.08-0.58 19.65 0.6 3.82 0.48 9.23 5.16 10.42 2.99 1.38 6.02 2.95 9.38 3.19 6.69 0.54 13.41 0.67 20.11 0.45-10.53 1.34-21.98 6.32-32.17 1.01-1.61-4.38-3.57-8.68-4.32-13.32-1.27-7.63-0.45-15.39 0.58-22.99z" fill="#86CAA7"/>
	<path d="m970.43 834.08c2.44-0.82 4.99-1.41 7.58-0.97 20.95 1.14 41.79 4.44 62.13 9.59 8.54 2.6 17.86 4.41 24.89 10.25 0.5399 2.76-2.67 3.89-4.79 4.36-13.63 1.64-27.11-1.87-40.18-5.31-8.28-2.32-16.48-4.91-24.66-7.54-8.41-3.23-17.26-5.57-24.97-10.38z" fill="#86CCA7"/>
	<path d="m859.73 837.72c9.85-0.46 19.81-1.9399 29.61-0.1899-4.2401 3.78-10.1 4.75-15.27 6.6899-12.63 3.9301-25.36 7.58-38.27 10.48-11.39 2.54-23.11 4.42-34.8 3.31-2.57-0.3-5.6-1.27-6.52-3.96-0.4-1.66 1.59-2.17 2.57-2.97 7.25-3.93 15.43-5.59 23.38-7.53 12.94-2.88 26.13-4.47 39.3-5.83z" fill="#86CCA7"/>
	<path d="m893.76 935.77c13.69-13.35 34.21-19.03 52.89-15.32 14.47 2.47 27.81 10.78 36.75 22.37 4.37 6.26 7.86 13.15 9.84 20.55 4.61 18.59 0.09 39.6-13.28 53.62-10.94 12.42-27.38 19.84-43.95 19.48-9.76 0.3101-19.66-1.6799-28.28-6.34-2.72-1.5-5.42-3.01-8.13-4.49-13.53-10.76-23.6-26.99-23.75-44.66-1.22-16.73 5.67-33.79 17.91-45.21z" fill="#DE6F5E"/>
	<path d="m983.4 942.82c4.42 2.79 7.33 7.27 10.39 11.39 6.17 9.34 9.94 20.5 9.48 31.78 1.04 19.35-9.63 38.11-25.37 48.91-7.38 4.9-15.81 8.1799-24.54 9.62-12.27 1.3099-25.17 0.3099-36.29-5.4401-6.48-3.48-13.02-7.45-17.47-13.44 2.71 1.48 5.41 2.99 8.13 4.49 8.62 4.66 18.52 6.65 28.28 6.34 16.57 0.36 33.01-7.0599 43.95-19.48 13.37-14.02 17.89-35.03 13.28-53.62-1.98-7.4-5.47-14.29-9.84-20.55z" fill="#B9503F"/>
	<path d="m574 956.29c1.3-2.25 2.64-4.48 3.97-6.7 5.21 0.61 10.43 1.18 15.61 2.0699-2.05 3.97-4.08 8.45-8.13 10.76-3.54 1.15-8.01 0.65-10.6-2.25-1.14-0.8999-1.76-2.6399-0.85-3.8799z" fill="#FFE2BA"/>
	<path d="m1161.4 968.38c14.83-9.51 32.26-14.42 49.7-15.96l-0.9099 1.54c-0.3101 0.53-0.9401 1.58-1.25 2.11-7.5901 2.43-15.3 4.7-22.35 8.49-15.28 7.85-28.47 19.79-37.49 34.44-12.62 19.64-18.2 43.08-19.51 66.18-1.1799 24.06 2.03 48.17 7.76 71.51 9.92 38.91 26.68 76.21 50.21 108.82 13.62 18.74 29.43 36.1 48.15 49.87 2.4801 1.8 5.7201 2.04 8.3201 3.64 1.9199 1.78 3.08 4.33 5.45 5.65 9.65 5.7899 19.91 10.64 30.67 14.01 6.08 1.88 12.23 3.62 18.13 6.08 16.81 6.52 31.83 18.9 39.41 35.49 7.75 17.8 8.1399 37.86 5.0099 56.77-3.84 23.56-12.29 46.19-23.4 67.26-7.87 14.84-17.02 29.16-28.35 41.62-10.69 11.79-24.16 20.68-38.26 27.86-12.59 6.22-26.08 10.77-39.99 12.82-8.6 1.66-17.38 0.8401-26.07 0.9601 5.1801-1.54 10.64-1.5901 15.87-2.9301 24.7-5.41 47.84-17.61 66.42-34.72 13.5-13.68 24.19-29.89 33.11-46.84 9.58-18.45 17.18-38.04 21.47-58.42 3.74-17.73 5.02-36.42 0.08-54.05-3.2899-10.8-8.7599-21.25-17.24-28.87-10.29-10.19-23.76-16.41-37.48-20.51-6.01-1.7-11.9-3.75-17.71-6 8.03 23.76 16.46 47.38 24.43 71.17 2.26 5.16-1.61 11.17-7.0699 11.82-31.41 5.2301-62.84 10.38-94.26 15.58 0.01 28.73-0.03 57.46 0.03 86.19-0.0601 3.99 0.38 8.28-1.48 11.98-2.23 3.6101-6.8201 4.28-10.71 4.28-27.03 0.03-54.07-0.02-81.09 0.04-3.3199-0.21-7.1799-0.01-9.75-2.46-1.92-1.7201-2.34-4.3601-3.13-6.65 26.98-0.04 53.96 0.0599 80.93-0.05 4.4199 0.3 8.0599-3.78 7.6499-8.1-0.0099-31.25 0.03-62.49-0.0099-93.74 30.84-4.72 61.58-10.13 92.38-15.13 3.1399-0.63 7.0499-1.17 8.71-4.3101 2.24-4.3199 0.65-9.2999-1.04-13.5-6.78-19.63-13.51-39.28-20.38-58.88-2.2-6.71-4.41-13.42-7.0499-19.97-2.2001-5.48-9.9701-6.22-14.09-2.48-0.48 0.34-1.46 1.01-1.9399 1.35-29.81-23.67-52.19-55.44-69.32-89.15-20.43-41.91-33.49-88.27-32.16-135.17 0.83-20.37 4.71-40.94 13.84-59.31 7.8498-16.41 20.29-30.7 35.76-40.33z" fill="#FFE3BB"/>
	<path d="m567.94 973.94c5.33-2.52 11.37-1.74 17.04-1.32 26.98 3.26 53.89 8.08 79.78 16.53 16.32 5.55 32.41 12.35 46.51 22.4 6.27 4.32 11.47 9.95 16.69 15.45 6.28 7.78 10.61 17.22 12 27.15-13.63-3.24-27.4-5.79-41.28-7.6801-7.55-0.84-15.05-2.38-22.68-2.33-4.65-0.08-8.7 2.53-13 3.9-18.56 6.33-38.4 9.8999-58.03 7.9399-13.34-1.27-26.49-5.7-37.4-13.56-9.34-6.2301-16.61-15.09-22.27-24.7-6.73-10.42-9.88-22.54-13.87-34.15l0.85-0.16c12.18-1.8998 24.22-4.7998 35.66-9.4698z" fill="#5AA6C8"/>
	<path d="m896.76 1077.7c17.93-15.28 45-17.78 65.92-7.39 8.45 4.5801 16.07 10.84 22.02 18.36 2.77 5.76 6.28 11.24 7.99 17.47 4.41 15.94 2.46 33.88-6.75 47.82-13.71 22.14-42.98 32.59-67.76 24.93-6.63-1.7001-12.47-5.37-18.49-8.4801-6.73-5.7-12.82-12.32-17.07-20.1-8.96-15.83-9.12-35.96-1.6-52.37 3.59-7.87 9.43-14.44 15.74-20.24z" fill="#DE6F5E"/>
	<path d="m984.7 1088.7c7.42 5.8401 12.17 14.38 15.54 23.05 3.36 8.67 3.36 18.15 2.79 27.3-2.1 16.32-11.61 31.58-25.39 40.62-14.01 9.5699-32.19 12.6-48.59 8.33-11.22-2.6899-22.02-8.5601-29.36-17.56 6.02 3.1101 11.86 6.78 18.49 8.4801 24.78 7.6599 54.05-2.79 67.76-24.93 9.21-13.94 11.16-31.88 6.75-47.82-1.71-6.2301-5.22-11.71-7.99-17.47z" fill="#B9503F"/>
	<path d="m1215.2 1291c4.12-3.74 11.89-3 14.09 2.48 2.6399 6.55 4.85 13.26 7.0499 19.97 6.87 19.6 13.6 39.25 20.38 58.88 1.6901 4.2001 3.28 9.1801 1.04 13.5-1.66 3.14-5.5701 3.6801-8.71 4.3101-30.8 5-61.54 10.41-92.38 15.13 0.0399 31.25 0 62.49 0.0099 93.74 0.41 4.3199-3.23 8.4-7.6499 8.1-26.97 0.11-53.95 0.01-80.93 0.05-3.97-0.15-8.02 0.47-11.91-0.42-4.3099-2.33-6.59-8.6899-3.4399-12.82 1.92-3.1801 5.66-4.6 9.26-4.37 25.65 0.11 51.3-0.0701 76.95 0.11 0.28-27.9 0.04-55.8 0.11-83.7 0.16-4.58-0.96-9.7999 2.0801-13.7 1.52-2.27 4.2799-3.04 6.8199-3.45 30.07-4.9501 60.11-10.05 90.18-14.97-8.02-24.74-17.06-49.14-25.18-73.84-1.24-3.1799 0.23-6.52 2.23-9z" fill="#B95040"/>
	<path d="m553.25 1312.5c2.62-2.8101 5.06-5.79 7.7-8.5801-2.25 28.38-5.06 56.71-7.45 85.07-0.51 4.78 3.58 9.23 8.42 8.88 28.47 0.0399 56.95-0.05 85.42 0.0399 4.53 23.79 9.87 47.42 14.51 71.18 0.71 3.03 1.22 6.29 3.15 8.84 2.47 2.7001 6.53 2.99 9.89 2.0701 21.39-5.29 42.69-10.98 64.09-16.23 4.87-1.3201 9.93-2.05 14.56-4.13 0.97 0.13 2.91 0.39 3.88 0.5199 1.22 2.02 2.3 4.25 2.1 6.7201 0.36 4.48-3.7 7.96-7.83 8.6699-28.56 7.13-57.12 14.28-85.68 21.42-4.45 1.45-10.4-0.62-11.41-5.58-5.33-25.3-10.61-50.62-15.74-75.96-27.97-0.01-55.94 0.04-83.91-0.02-5.24 0.3701-10.47-3.97-9.89-9.4399 2.6501-31.16 5.5701-62.31 8.1901-93.47z" fill="#FFE3BA"/>
	<path d="m880.12 1337.1c14.03-9.2 29.82-17.21 46.95-17.48 16.72-0.24 32.44 8.61 43.22 20.99 14.68 16.26 23.82 36.61 31.24 57-16.35 7.16-30.9 17.81-43.85 30-4.33 4.34-8.64 8.7-13.06 12.95-27.24 28.51-49.82 61.06-70.55 94.49-5.32 8.75-10.57 17.56-15.44 26.57-2.44 5.6801-3 11.95-5.15 17.75-5.16 17.84-12.55 35.04-22.19 50.92-5.25 7.61-10.55 15.28-17.4 21.57-13.2 14.3-32.35 23.3-51.94 22.94-19.12 0.6399-37.28-6.9701-53.8-15.88-14.11-8.13-27.23-17.91-39.43-28.68-11.52-9.72-21.52-21.06-32.69-31.13 6.58 1.55 13.19 3.4301 20.01 3.42 7.02-0.01 14.16 0.38 21.04-1.3301 8.36-2.13 16.44-5.5299 23.58-10.42 6.36-3.8301 11.24-9.51 16.47-14.67 8.38-8.3 14.38-18.58 20.12-28.79 8.56-16.5 14.96-34.11 19.3-52.18 1.88-7.7001 6.77-14.09 10.52-20.92 20.46-34.64 43.29-68.02 69.98-98.2 5.87-6.12 11.98-12.02 17.93-18.06 7.58-7.8499 16.39-14.38 25.14-20.86z" fill="#5AA6C8"/>
	<path d="m1345 1356.1c8.71 5.13 17.89 9.51 27.65 12.26 9.02 2.4401 17.78 5.8 26.24 9.74 14.69 7.8501 28.56 18.23 37.47 32.57 11.26 16.78 15.48 37.38 15.46 57.35-0.5499 37.27-13.5 73.29-31.32 105.64-10.33 17.93-22.1 35.36-37.41 49.44-17.46 15.65-38.51 27.08-60.79 34.21-13.73 4.0399-27.95 7.1799-42.34 6.52-21.3 0.97-42.55-4.64-61.41-14.35-22.03-11.56-40.64-28.86-55.59-48.59-2.52-3.49-5.6801-6.6-7.1899-10.69 7.99 1.5199 16.13 1.6599 24.24 1.5599 18.95 0.37 37.68-4.33 55.21-11.26 16.44-6.85 31.98-16.01 45.52-27.61 16.13-14.34 28.64-32.21 39.25-50.87 18.35-33 31.39-69.92 31.65-108.02-0.3802-12.86-2.0902-25.81-6.6402-37.9z" fill="#5AA6C8"/>
</svg>
