<?xml version="1.0" encoding="UTF-8" standalone="no"?>
<svg
   xmlns:dc="http://purl.org/dc/elements/1.1/"
   xmlns:cc="http://creativecommons.org/ns#"
   xmlns:rdf="http://www.w3.org/1999/02/22-rdf-syntax-ns#"
   xmlns:svg="http://www.w3.org/2000/svg"
   xmlns="http://www.w3.org/2000/svg"
   height="123.92583"
   width="542.51202"
   xml:space="preserve"
   viewBox="0 0 542.51202 123.92583"
   y="0px"
   x="0px"
   id="Layer_1"
   version="1.1"><metadata
     id="metadata3793"><rdf:RDF><cc:Work
         rdf:about=""><dc:format>image/svg+xml</dc:format><dc:type
           rdf:resource="http://purl.org/dc/dcmitype/StillImage" /><dc:title></dc:title></cc:Work></rdf:RDF></metadata><defs
     id="defs3791" /><style
     id="style3774"
     type="text/css">
	.st0{fill:#8CC63F;}
	.st1{fill:#0095F3;}
</style><g
     transform="translate(-128.48797,-240.94152)"
     id="XMLID_48_"><path
       style="fill:#8cc63f"
       d="m 276,274.2 12.6,47.7 8.4,-40.4 c 0.5,-2.2 1.6,-3.9 3.3,-5.3 1.7,-1.3 3.6,-1.9 5.7,-1.9 2.1,0 4,0.6 5.7,1.9 1.8,1.3 2.9,3.1 3.3,5.3 l 8.4,40.4 12.5,-47.6 h 11.7 L 332,333.8 c -0.5,2 -1.6,3.6 -3.3,4.9 -1.6,1.2 -3.5,1.8 -5.5,1.8 -2.1,0 -3.9,-0.6 -5.6,-1.8 -1.8,-1.3 -2.9,-3.1 -3.4,-5.2 L 306,294 l -8.2,39.4 c -0.5,2.2 -1.6,3.9 -3.4,5.2 -1.6,1.2 -3.5,1.8 -5.6,1.8 -2,0 -3.9,-0.6 -5.5,-1.8 -1.7,-1.3 -2.8,-2.9 -3.4,-4.9 l -15.7,-59.5 z"
       class="st0"
       id="XMLID_105_" /><path
       style="fill:#8cc63f"
       d="m 365.9,327.5 c 2.4,1.6 5,2.4 7.8,2.4 2.2,0 4.4,-0.5 6.7,-1.4 2.6,-1 4.4,-2.3 5.5,-3.9 l 8.6,6 c -2.1,3 -5.1,5.4 -9.2,7.2 -3.8,1.7 -7.7,2.6 -11.6,2.6 -4.1,0 -7.9,-1 -11.6,-3 -3.8,-2.1 -6.7,-4.8 -8.7,-8.2 -1.1,-1.8 -1.9,-3.7 -2.4,-5.6 -0.5,-2 -0.8,-3.9 -0.8,-6 0,-6.3 2.2,-11.7 6.7,-16.1 4.5,-4.5 9.8,-6.7 16.1,-6.7 4.6,0 8.8,1.3 12.7,3.9 4.7,3.2 8,7.9 9.8,14.3 z m 16.2,-18.1 c -2.1,-3.2 -5.2,-4.8 -9.2,-4.8 -4,0 -7.2,1.5 -9.7,4.5 -2.4,3.1 -3.1,6.7 -2.4,10.7 z"
       class="st0"
       id="XMLID_102_" /><path
       style="fill:#0095f3"
       d="m 434.2,340.4 c -9.6,0 -17.3,-3.2 -23.4,-9.6 -5.9,-6.3 -8.8,-14.1 -8.8,-23.5 0,-9.5 2.9,-17.3 8.8,-23.6 6.1,-6.4 13.9,-9.6 23.4,-9.6 12,0 21,5.9 27.1,17.8 l -10.1,5.2 c -4,-7.7 -9.7,-11.6 -17,-11.6 -6.3,0 -11.4,2.1 -15.2,6.3 -3.7,4 -5.6,9.2 -5.6,15.5 0,6.3 1.9,11.4 5.6,15.4 3.8,4.2 8.9,6.3 15.2,6.3 7.4,0 13,-3.9 17,-11.6 l 10.1,5.2 c -6.1,11.9 -15.1,17.8 -27.1,17.8 z"
       class="st1"
       id="XMLID_100_" /><path
       style="fill:#0095f3"
       d="m 508.4,301.5 c 4.5,4.5 6.7,9.9 6.7,16.3 v 22.6 h -10.6 v -5.3 c -2.8,3.5 -6.9,5.3 -12.2,5.3 -6.3,0 -11.7,-2.2 -16.1,-6.7 -4.5,-4.5 -6.7,-9.8 -6.7,-16.1 0,-6.3 2.2,-11.7 6.7,-16.1 4.5,-4.5 9.8,-6.7 16.1,-6.7 6.3,0 11.7,2.2 16.1,6.7 z m -16.1,4.1 c -3.1,0 -5.8,1.2 -8.1,3.5 -2.2,2.3 -3.3,5.1 -3.3,8.5 0,3.3 1.1,6.1 3.3,8.5 2.2,2.3 4.9,3.5 8.1,3.5 3.1,0 5.8,-1.2 8.1,-3.5 2.2,-2.3 3.3,-5.2 3.3,-8.5 0,-3.3 -1.1,-6.1 -3.3,-8.5 -2.2,-2.3 -4.9,-3.5 -8.1,-3.5 z"
       class="st1"
       id="XMLID_81_" /><path
       style="fill:#0095f3"
       d="m 551.2,306.2 c -3.7,0 -6.8,1.3 -9.4,3.9 -2.6,2.6 -3.9,5.8 -3.9,9.4 v 20.9 h -11.4 v -20.9 c 0,-6.8 2.4,-12.7 7.2,-17.5 4.8,-4.8 10.6,-7.2 17.4,-7.2 7.7,0.6 13.6,3.8 17.6,9.6 l -8.7,5.7 c -2.4,-2.6 -5.3,-3.9 -8.8,-3.9 z"
       class="st1"
       id="XMLID_79_" /><path
       style="fill:#0095f3"
       d="m 598.6,306.2 c -3.7,0 -6.8,1.3 -9.4,3.9 -2.6,2.6 -3.9,5.8 -3.9,9.4 v 20.9 H 574 v -20.9 c 0,-6.8 2.4,-12.7 7.2,-17.5 4.8,-4.8 10.6,-7.2 17.4,-7.2 7.7,0.6 13.6,3.8 17.6,9.6 l -8.7,5.7 c -2.5,-2.6 -5.5,-3.9 -8.9,-3.9 z"
       class="st1"
       id="XMLID_77_" /><path
       style="fill:#0095f3"
       d="m 645.9,350 c 3.7,0 6.9,-1.4 9.6,-4.1 2.7,-2.7 4.1,-5.9 4.1,-9.6 v -4.7 c -2.9,4.6 -7.4,6.9 -13.3,6.9 -6.8,0 -12.6,-2.4 -17.4,-7.2 -4.8,-4.8 -7.2,-10.6 -7.2,-17.4 v -19 H 633 v 19 c 0,3.7 1.3,6.8 3.9,9.4 2.6,2.6 5.7,3.9 9.4,3.9 3.7,0 6.8,-1.3 9.4,-3.9 2.6,-2.6 3.9,-5.7 3.9,-9.4 v -19 H 671 v 41.6 c 0,6.8 -2.5,12.6 -7.4,17.4 -4.9,4.8 -10.8,7.2 -17.7,7.2 -11,0 -19.1,-4.6 -24.5,-13.7 l 9.4,-5.6 c 3.2,5.4 8.2,8.2 15.1,8.2 z"
       class="st1"
       id="XMLID_75_" /></g><path
     style="fill:#0095f3"
     d="m 51.612031,60.058483 c -2.5,6.7 -9.8,10.1 -16.6,7.6 -6.9,-2.5 -10.1,-9.6 -7.4,-16.5 2.5,-6.7 10,-10 16.7,-7.3 6.3,2.4 9.6,9.9 7.3,16.2 z"
     class="st1"
     id="XMLID_74_" /><path
     style="fill:#8cc63f"
     d="m 103.31203,42.258483 c -2.5,6.3 -9.899999,9.6 -16.399999,7.1 -6.6,-2.5 -9.9,-10.3 -7.2,-16.8 2.7,-6.4 9.9,-9.3 16.5,-6.6 6.599999,2.7 9.699999,9.8 7.099999,16.3 z"
     class="st0"
     id="XMLID_73_" /><path
     style="fill:#0095f3"
     d="m 122.61203,51.658483 c -0.1,0 -0.2,0 -0.3,0 -2,-0.5 -3.9,-1 -5.9,-1.4 -9.3,-32.6 -37.899999,-43.9999999 -61.399999,-38.3 -23.9,5.7 -40.9,28.7 -38.3,52.7 16.9,10.3 35,17.1 57.1,12.9 -14.4,8.5 -28.7,12.5 -43.2,12.3 -7.3,-0.1 -14.6,-1.3 -22.1000004,-3.5 -1.3,-0.4 -2.7,-0.8 -4,-1.3 -5.6,-13.9 -6.2,-29.8 -0.6,-44.9 C 15.912031,8.1584831 51.612031,-8.0415169 83.512031,3.9584831 c 14.5,5.4 25.699999,15.6999999 32.599999,28.2999999 0,0 0,0 0,0 3,6 5.1,12.4 6.5,19.4 z"
     class="st1"
     id="XMLID_72_" /><path
     style="fill:#8cc63f"
     d="m 81.612031,120.65848 c -0.1,0 -0.2,0.1 -0.3,0.1 -13,4.3 -27.4,4.4 -41.2,-0.8 -13.9,-5.2 -24.9,-14.9 -31.8000004,-26.899997 7.5000004,1.1 14.8000004,2.1 22.1000004,3.2 32.2,29.899997 73.699999,10.699997 82.699999,-17 -16.399999,-9.6 -33.699999,-15.2 -53.099999,-11.2 19.8,-12.6 40.799999,-15.7 63.199999,-9.5 2.5,26.8 -15.2,52.699997 -41.599999,62.099997 z"
     class="st0"
     id="XMLID_64_" /></svg>